/* XPM */
static char *ebrow_xpm16[] = {
"16 16 55 1 0 0",
"  c #000000",
"! c #262626",
"# c #4F4F4F",
"$ c #555555",
"% c #343434",
"& c #1E1E1E",
"' c #7B7B7B",
"( c #353535",
") c #050505",
"* c #070707",
"+ c #3E4041",
", c #8F8F8F",
"- c #2D2D2D",
". c #5E5E5E",
"/ c #F2F2F2",
"0 c #4D4D4D",
"1 c #020202",
"2 c #616E73",
"3 c #040505",
"4 c #3E3E3E",
"5 c #FBFBFB",
"6 c #818181",
"7 c #060606",
"8 c #090909",
"9 c #9A9A9A",
": c #FFFFFF",
"; c #4D595E",
"< c #444B4D",
"= c #030303",
"> c #F5F5F5",
"? c #BDBDBD",
"@ c #151515",
"A c #242424",
"B c #C7C7C7",
"C c #323C3E",
"D c #98B3BE",
"E c #141414",
"F c #FCFCFC",
"G c #DEDEDE",
"H c #3C3C3C",
"I c #7C7C7C",
"J c #909090",
"K c #83915B",
"L c #384340",
"M c #0F0F0F",
"N c #080808",
"O c #8C8C8C",
"P c #949494",
"Q c #171717",
"R c #191919",
"S c #484848",
"T c #424242",
"U c #545454",
"V c #2A2A2A",
"W c None",
"WWWWWW    WWWWWW",
"WWWW  WWWW  WWWW",
"WWW WWWWWWWW WWW",
"WW WWWWWWWWWW WW",
"  WWWW!#$%WWWW  ",
"WWWW&'()*+,-WWWW",
"WW ./01*234567WW",
" 89::7);<*=>:?@ ",
"WWAB:&CD!E!FGHWW",
"WWW8IJKLMNOPQWWW",
"WWWWWRSTSUVWWWWW",
"WWWWWWW  WWWWWWW",
"WWWWWWWWWWWWWWWW",
"WWWWWWWWWWWWWWWW",
"WWWWWWWWWWWWWWWW",
"WWWWWWWWWWWWWWWW"
};
