<svg width="66.000mm" height="66.000mm" viewBox="-33.000 -33.000 66.000 66.000" xmlns="http://www.w3.org/2000/svg" version="1.1">
    <style />
    <desc>Gear wheel: modul = 2.0, teeth = 30, alpha = 20.0, d = 60.000</desc>
    <g transform="scale(1, -1)" fill="lightgrey">
        <path d="M 27.514 -2.892 Q 27.571 -1.811 28.130 -1.848 Q 28.889 -1.897 29.959 -1.570 Q 30.979 -1.258 31.993 -0.684 A 32.000 32.000 0 0 1 31.993 0.684 Q 30.979 1.258 29.959 1.570 Q 28.889 1.897 28.130 1.848 Q 27.628 1.815 27.514 2.892 Q 27.401 3.969 27.900 4.041 Q 28.652 4.150 29.631 4.693 Q 30.564 5.210 31.436 5.983 A 32.000 32.000 0 0 1 31.151 7.320 Q 30.041 7.672 28.978 7.765 Q 27.863 7.862 27.131 7.656 Q 26.647 7.519 26.312 8.549 Q 25.977 9.580 26.450 9.754 Q 27.163 10.017 28.007 10.751 Q 28.813 11.451 29.505 12.388 A 32.000 32.000 0 0 1 28.949 13.637 Q 27.789 13.750 26.730 13.620 Q 25.619 13.483 24.947 13.129 Q 24.501 12.895 23.959 13.833 Q 23.418 14.771 23.844 15.040 Q 24.487 15.445 25.160 16.339 Q 25.802 17.191 26.284 18.252 A 32.000 32.000 0 0 1 25.481 19.358 Q 24.323 19.227 23.314 18.880 Q 22.256 18.515 21.672 18.029 Q 21.285 17.707 20.560 18.512 Q 19.835 19.317 20.196 19.669 Q 20.740 20.199 21.213 21.213 Q 21.664 22.180 21.915 23.318 A 32.000 32.000 0 0 1 20.899 24.233 Q 19.794 23.864 18.880 23.314 Q 17.920 22.738 17.450 22.141 Q 17.138 21.746 16.262 22.382 Q 15.385 23.019 15.665 23.438 Q 16.087 24.070 16.339 25.160 Q 16.579 26.200 16.588 27.365 A 32.000 32.000 0 0 1 15.404 28.048 Q 14.400 27.458 13.620 26.730 Q 12.801 25.967 12.465 25.285 Q 12.242 24.834 11.253 25.274 Q 10.263 25.715 10.450 26.182 Q 10.732 26.888 10.751 28.007 Q 10.770 29.074 10.536 30.216 A 32.000 32.000 0 0 1 9.236 30.638 Q 8.377 29.852 7.765 28.978 Q 7.123 28.061 6.936 27.324 Q 6.812 26.836 5.752 27.061 Q 4.692 27.287 4.778 27.783 Q 4.907 28.532 4.693 29.631 Q 4.489 30.678 4.024 31.746 A 32.000 32.000 0 0 1 2.664 31.889 Q 1.987 30.941 1.570 29.959 Q 1.133 28.929 1.103 28.169 Q 1.083 27.666 0.000 27.666 Q -1.083 27.666 -1.103 28.169 Q -1.133 28.929 -1.570 29.959 Q -1.987 30.941 -2.664 31.889 A 32.000 32.000 0 0 1 -4.024 31.746 Q -4.489 30.678 -4.693 29.631 Q -4.907 28.532 -4.778 27.783 Q -4.692 27.287 -5.752 27.061 Q -6.812 26.836 -6.936 27.324 Q -7.123 28.061 -7.765 28.978 Q -8.377 29.852 -9.236 30.638 A 32.000 32.000 0 0 1 -10.536 30.216 Q -10.770 29.074 -10.751 28.007 Q -10.732 26.888 -10.450 26.182 Q -10.263 25.715 -11.253 25.274 Q -12.242 24.834 -12.465 25.285 Q -12.801 25.967 -13.620 26.730 Q -14.400 27.458 -15.404 28.048 A 32.000 32.000 0 0 1 -16.588 27.365 Q -16.579 26.200 -16.339 25.160 Q -16.087 24.070 -15.665 23.438 Q -15.385 23.019 -16.262 22.382 Q -17.138 21.746 -17.450 22.141 Q -17.920 22.738 -18.880 23.314 Q -19.794 23.864 -20.899 24.233 A 32.000 32.000 0 0 1 -21.915 23.318 Q -21.664 22.180 -21.213 21.213 Q -20.740 20.199 -20.196 19.669 Q -19.835 19.317 -20.560 18.512 Q -21.285 17.707 -21.672 18.029 Q -22.256 18.515 -23.314 18.880 Q -24.323 19.227 -25.481 19.358 A 32.000 32.000 0 0 1 -26.284 18.252 Q -25.802 17.191 -25.160 16.339 Q -24.487 15.445 -23.844 15.040 Q -23.418 14.771 -23.959 13.833 Q -24.501 12.895 -24.947 13.129 Q -25.619 13.483 -26.730 13.620 Q -27.789 13.750 -28.949 13.637 A 32.000 32.000 0 0 1 -29.505 12.388 Q -28.813 11.451 -28.007 10.751 Q -27.163 10.017 -26.450 9.754 Q -25.977 9.580 -26.312 8.549 Q -26.647 7.519 -27.131 7.656 Q -27.863 7.862 -28.978 7.765 Q -30.041 7.672 -31.151 7.320 A 32.000 32.000 0 0 1 -31.436 5.983 Q -30.564 5.210 -29.631 4.693 Q -28.652 4.150 -27.900 4.041 Q -27.401 3.969 -27.514 2.892 Q -27.628 1.815 -28.130 1.848 Q -28.889 1.897 -29.959 1.570 Q -30.979 1.258 -31.993 0.684 A 32.000 32.000 0 0 1 -31.993 -0.684 Q -30.979 -1.258 -29.959 -1.570 Q -28.889 -1.897 -28.130 -1.848 Q -27.628 -1.815 -27.514 -2.892 Q -27.401 -3.969 -27.900 -4.041 Q -28.652 -4.150 -29.631 -4.693 Q -30.564 -5.210 -31.436 -5.983 A 32.000 32.000 0 0 1 -31.151 -7.320 Q -30.041 -7.672 -28.978 -7.765 Q -27.863 -7.862 -27.131 -7.656 Q -26.647 -7.519 -26.312 -8.549 Q -25.977 -9.580 -26.450 -9.754 Q -27.163 -10.017 -28.007 -10.751 Q -28.813 -11.451 -29.505 -12.388 A 32.000 32.000 0 0 1 -28.949 -13.637 Q -27.789 -13.750 -26.730 -13.620 Q -25.619 -13.483 -24.947 -13.129 Q -24.501 -12.895 -23.959 -13.833 Q -23.418 -14.771 -23.844 -15.040 Q -24.487 -15.445 -25.160 -16.339 Q -25.802 -17.191 -26.284 -18.252 A 32.000 32.000 0 0 1 -25.481 -19.358 Q -24.323 -19.227 -23.314 -18.880 Q -22.256 -18.515 -21.672 -18.029 Q -21.285 -17.707 -20.560 -18.512 Q -19.835 -19.317 -20.196 -19.669 Q -20.740 -20.199 -21.213 -21.213 Q -21.664 -22.180 -21.915 -23.318 A 32.000 32.000 0 0 1 -20.899 -24.233 Q -19.794 -23.864 -18.880 -23.314 Q -17.920 -22.738 -17.450 -22.141 Q -17.138 -21.746 -16.262 -22.382 Q -15.385 -23.019 -15.665 -23.438 Q -16.087 -24.070 -16.339 -25.160 Q -16.579 -26.200 -16.588 -27.365 A 32.000 32.000 0 0 1 -15.404 -28.048 Q -14.400 -27.458 -13.620 -26.730 Q -12.801 -25.967 -12.465 -25.285 Q -12.242 -24.834 -11.253 -25.274 Q -10.263 -25.715 -10.450 -26.182 Q -10.732 -26.888 -10.751 -28.007 Q -10.770 -29.074 -10.536 -30.216 A 32.000 32.000 0 0 1 -9.236 -30.638 Q -8.377 -29.852 -7.765 -28.978 Q -7.123 -28.061 -6.936 -27.324 Q -6.812 -26.836 -5.752 -27.061 Q -4.692 -27.287 -4.778 -27.783 Q -4.907 -28.532 -4.693 -29.631 Q -4.489 -30.678 -4.024 -31.746 A 32.000 32.000 0 0 1 -2.664 -31.889 Q -1.987 -30.941 -1.570 -29.959 Q -1.133 -28.929 -1.103 -28.169 Q -1.083 -27.666 -0.000 -27.666 Q 1.083 -27.666 1.103 -28.169 Q 1.133 -28.929 1.570 -29.959 Q 1.987 -30.941 2.664 -31.889 A 32.000 32.000 0 0 1 4.024 -31.746 Q 4.489 -30.678 4.693 -29.631 Q 4.907 -28.532 4.778 -27.783 Q 4.692 -27.287 5.752 -27.061 Q 6.812 -26.836 6.936 -27.324 Q 7.123 -28.061 7.765 -28.978 Q 8.377 -29.852 9.236 -30.638 A 32.000 32.000 0 0 1 10.536 -30.216 Q 10.770 -29.074 10.751 -28.007 Q 10.732 -26.888 10.450 -26.182 Q 10.263 -25.715 11.253 -25.274 Q 12.242 -24.834 12.465 -25.285 Q 12.801 -25.967 13.620 -26.730 Q 14.400 -27.458 15.404 -28.048 A 32.000 32.000 0 0 1 16.588 -27.365 Q 16.579 -26.200 16.339 -25.160 Q 16.087 -24.070 15.665 -23.438 Q 15.385 -23.019 16.262 -22.382 Q 17.138 -21.746 17.450 -22.141 Q 17.920 -22.738 18.880 -23.314 Q 19.794 -23.864 20.899 -24.233 A 32.000 32.000 0 0 1 21.915 -23.318 Q 21.664 -22.180 21.213 -21.213 Q 20.740 -20.199 20.196 -19.669 Q 19.835 -19.317 20.560 -18.512 Q 21.285 -17.707 21.672 -18.029 Q 22.256 -18.515 23.314 -18.880 Q 24.323 -19.227 25.481 -19.358 A 32.000 32.000 0 0 1 26.284 -18.252 Q 25.802 -17.191 25.160 -16.339 Q 24.487 -15.445 23.844 -15.040 Q 23.418 -14.771 23.959 -13.833 Q 24.501 -12.895 24.947 -13.129 Q 25.619 -13.483 26.730 -13.620 Q 27.789 -13.750 28.949 -13.637 A 32.000 32.000 0 0 1 29.505 -12.388 Q 28.813 -11.451 28.007 -10.751 Q 27.163 -10.017 26.450 -9.754 Q 25.977 -9.580 26.312 -8.549 Q 26.647 -7.519 27.131 -7.656 Q 27.863 -7.862 28.978 -7.765 Q 30.041 -7.672 31.151 -7.320 A 32.000 32.000 0 0 1 31.436 -5.983 Q 30.564 -5.210 29.631 -4.693 Q 28.652 -4.150 27.900 -4.041 Q 27.401 -3.969 27.514 -2.892 Z" stroke="black" stroke-width="0.35" stroke-linecap="round" />
        <circle cx="0.000" cy="0.000" r="32.000" stroke="black" stroke-width="0.1" stroke-linecap="round" stroke-dasharray="1.0 1.0" stroke-dashoffset="0.5" fill="none" />
        <circle cx="0.000" cy="0.000" r="30.000" stroke="black" stroke-width="0.2" stroke-linecap="round" stroke-dasharray="2.0 1.0 0.0 1.0" stroke-dashoffset="1.0" fill="none" />
        <circle cx="0.000" cy="0.000" r="28.191" stroke="black" stroke-width="0.1" stroke-linecap="round" stroke-dasharray="0.0 0.2" fill="none" />
        <circle cx="0.000" cy="0.000" r="27.666" stroke="black" stroke-width="0.1" stroke-linecap="round" stroke-dasharray="1.0 1.0" stroke-dashoffset="0.5" fill="none" />
    </g>
</svg>