<?xml version="1.0" encoding="utf-8"?>
<!-- Generator: Adobe Illustrator 27.3.1, SVG Export Plug-In . SVG Version: 6.00 Build 0)  -->
<svg version="1.1" id="Calque_1" xmlns="http://www.w3.org/2000/svg" xmlns:xlink="http://www.w3.org/1999/xlink" x="0px" y="0px"
	 viewBox="0 0 1352 506" style="enable-background:new 0 0 1352 506;" xml:space="preserve">
<style type="text/css">
	.st0{fill:#4A3041;}
	.st1{fill:#FF8C00;}
</style>
<g>
	<g>
		<path class="st0" d="M45.12,302.97h74.75c33.25,0,61.98,19.68,61.98,62.51c0,38.57-28.73,61.45-61.98,61.45H56.83v56.93h-11.7
			V302.97z M56.83,313.61v102.68h61.45c28.2,0,51.61-18.62,51.61-50.81c0-35.38-23.41-51.87-51.61-51.87H56.83z"/>
		<path class="st0" d="M338.26,457.52c0,11.44,3.72,18.35,13.83,18.35c5.32,0,10.37-2.39,15.96-6.12l2.39,9.58
			c-5.85,3.99-14.1,7.18-21.28,7.18c-14.1,0-20.48-7.71-22.08-21.01c-10.64,11.17-28.73,21.01-49.48,21.01
			c-41.5,0-68.9-29.79-68.9-71.56c0-42.29,27.4-72.62,68.9-72.62c20.75,0,38.04,9.58,48.95,20.22v-17.82h11.7V457.52z M326.55,374
			c-9.04-10.38-26.6-21.01-46.82-21.01c-35.91,0-59.05,25.8-59.05,61.98c0,35.38,23.14,60.92,59.05,60.92
			c20.22,0,37.51-10.64,46.82-21.01V374z"/>
		<path class="st0" d="M406.88,294.99c5.32,0,9.04,2.39,9.04,9.84c0,7.18-3.72,10.11-9.04,10.11c-5.85,0-9.58-2.93-9.58-10.11
			C397.31,297.39,401.03,294.99,406.88,294.99z M412.47,457.52c0,11.17,3.46,18.35,13.83,18.35c5.32,0,10.91-2.66,15.69-6.12
			l2.66,9.58c-4.79,3.72-13.57,7.18-21.55,7.18c-15.69,0-22.34-9.84-22.34-27.4V344.74h11.7V457.52z"/>
		<path class="st0" d="M595.74,468.7c-14.36,11.44-33.25,18.89-56.39,18.89c-52.4,0-74.48-33.25-74.48-72.89
			c0-40.17,27.4-73.68,72.09-73.68c42.29,0,61.18,26.6,61.18,57.99c0,7.45-1.06,15.16-2.39,20.22H476.57
			c1.33,32.19,19.95,57.99,62.78,57.99c21.81,0,38.04-7.98,50.81-17.56L595.74,468.7z M586.7,397.67c0-24.21-14.9-46.29-49.74-46.29
			c-36.71,0-59.05,26.6-60.12,57.72h108.8C586.17,405.65,586.7,401.66,586.7,397.67z"/>
		<path class="st0" d="M652.13,344.74v29.79c9.04-19.42,26.07-32.19,50.81-32.19c27.67,0,42.03,13.57,48.68,35.91
			c8.25-20.48,26.07-35.91,53.2-35.91c35.91,0,51.34,26.6,51.34,61.45v53.73c0,11.44,3.46,18.35,13.57,18.35
			c5.05,0,10.37-2.39,15.96-6.12l2.66,9.58c-5.59,3.99-14.36,7.18-21.55,7.18c-15.69,0-22.34-9.84-22.34-27.4v-54
			c0-29.26-12.5-51.6-42.83-51.6c-26.07,0-42.29,18.89-47.35,40.7v89.64h-11.7v-79c0-29.53-12.24-51.34-42.56-51.34
			c-26.33,0-42.56,18.62-47.88,40.43v89.91h-11.7V344.74H652.13z"/>
		<path class="st0" d="M1036.77,468.7c-14.36,11.44-33.25,18.89-56.39,18.89c-52.4,0-74.48-33.25-74.48-72.89
			c0-40.17,27.4-73.68,72.09-73.68c42.29,0,61.18,26.6,61.18,57.99c0,7.45-1.06,15.16-2.39,20.22H917.59
			c1.33,32.19,19.95,57.99,62.78,57.99c21.81,0,38.04-7.98,50.81-17.56L1036.77,468.7z M1027.72,397.67
			c0-24.21-14.9-46.29-49.74-46.29c-36.71,0-59.05,26.6-60.12,57.72h108.8C1027.19,405.65,1027.72,401.66,1027.72,397.67z"/>
		<path class="st0" d="M1093.15,344.74v28.46c9.58-19.42,28.2-30.86,52.94-30.86c35.91,0,53.47,26.6,53.47,61.45v53.73
			c0,11.44,3.72,18.35,13.83,18.35c5.32,0,10.38-2.39,15.96-6.12l2.39,9.58c-5.59,3.99-13.83,7.18-21.28,7.18
			c-15.69,0-22.61-9.84-22.61-27.4v-54c0-29.26-14.1-51.6-44.42-51.6c-26.33,0-44.96,17.02-50.28,38.84v91.51h-11.7V344.74H1093.15z
			"/>
		<path class="st0" d="M1279.62,309.36v35.38h60.12v10.11h-60.12v89.91c0,19.95,9.84,31.12,28.2,31.12
			c11.44,0,25.8-5.05,34.85-11.44l4.52,9.58c-10.91,7.18-25.8,12.5-42.03,12.5c-23.41,0-37.24-14.1-37.24-40.17v-91.51h-28.73
			v-10.11h28.73l1.06-35.38H1279.62z"/>
	</g>
</g>
<path class="st1" d="M388.95,91.13c46.58,0,79.52,33.51,79.52,78.67c0,44.59-32.94,77.81-79.52,77.81
	c-46.01,0-79.24-33.23-79.24-77.81C309.71,124.64,342.94,91.13,388.95,91.13z M388.95,220.35c30.39,0,51.12-21.87,51.12-50.55
	c0-29.25-20.73-51.4-51.12-51.4c-29.82,0-50.55,22.15-50.55,51.4C338.39,198.48,359.13,220.35,388.95,220.35z"/>
<path class="st1" d="M522.71,95.11v22.72c10.51-15.34,28.12-25.28,51.12-25.28c38.34,0,55.95,28.68,55.95,65.6v46.29
	c0,9.94,2.84,16.76,11.93,16.76c5.11,0,10.51-1.99,15.62-5.11l1.99,23.57c-6.82,3.69-17.61,6.82-28.68,6.82
	c-20.16,0-30.39-11.08-30.39-35.5V162.7c0-25.28-12.21-42.88-36.64-42.88c-21.02,0-35.78,15.9-40.9,32.09v91.73h-29.54V95.11H522.71
	z"/>
<path class="st1" d="M805,227.45c-15.34,12.5-36.64,20.16-61.63,20.16c-55.95,0-80.37-34.65-80.37-77.81
	c0-43.74,30.1-78.67,77.82-78.67c45.16,0,66.17,27.83,66.17,61.91c0,8.8-1.42,20.73-3.12,26.13H693.39
	c2.84,25.84,18.46,43.45,50.83,43.45c20.45,0,46.42-15.1,57.78-23.62L805,227.45z M778.59,148.21c0-17.04-11.64-32.38-38.34-32.38
	c-27.83,0-44.02,18.74-46.29,40.33h84.06C778.3,153.89,778.59,150.77,778.59,148.21z"/>
<path class="st1" d="M872.31,57.34v37.77h57.94v23.29h-57.94v73.84c0,19.31,8.52,28.4,23.86,28.4c11.36,0,31.6-8.67,39.84-14.63
	l2.76,26.28c-13.35,8.24-30.96,14.2-51.4,14.2c-27.55,0-44.59-16.76-44.59-48.56L843,57L872.31,57.34z"/>
<path class="st1" d="M971.14,36.32c11.08,0,18.18,4.26,18.18,16.47s-7.1,16.76-18.18,16.76c-10.79,0-18.46-4.54-18.46-16.76
	S960.35,36.32,971.14,36.32z M985.62,204.45c0,9.94,2.84,16.76,11.93,16.76c5.96,0,12.5-2.84,15.62-5.11l2.27,23.57
	c-3.12,2.56-15.9,6.82-28.97,6.82c-19.88,0-30.39-11.08-30.39-35.5V95.11h29.54V204.45z"/>
<path class="st1" d="M1164.82,227.17c-15.62,12.21-37.77,20.45-61.91,20.45c-55.95,0-80.09-33.23-80.09-77.81
	c0-45.44,30.67-78.67,78.1-78.67c41.75,0,64.18,23.29,65.6,57.08l-26.41,6.25c-1.42-22.72-13.35-37.2-38.91-37.2
	c-30.1,0-48,22.15-48,51.69c0,29.25,15.34,52.54,53.11,52.54c16.47,0,42.47-12.11,54.68-21.49L1164.82,227.17z"/>
<path class="st1" d="M1258.54,91.13c46.58,0,79.52,33.51,79.52,78.67c0,44.59-32.94,77.81-79.52,77.81
	c-46.01,0-79.23-33.23-79.23-77.81C1179.31,124.64,1212.54,91.13,1258.54,91.13z M1258.54,220.35c30.39,0,51.12-21.87,51.12-50.55
	c0-29.25-20.73-51.4-51.12-51.4c-29.82,0-50.55,22.15-50.55,51.4C1207.99,198.48,1228.72,220.35,1258.54,220.35z"/>
<polygon class="st1" points="18,221 42.32,221 42.32,22.09 75.3,22.09 155,124 117.5,124.5 74.5,71.5 74.77,221 113.6,221 
	114.13,247.61 18,247.61 "/>
<g>
	<polygon class="st0" points="297.51,221.03 273.19,221.03 273.19,22.12 240.21,22.12 160.51,124.03 198.01,124.53 241.01,71.53 
		240.74,221.03 201.91,221.03 201.38,247.65 297.51,247.65 	"/>
</g>
</svg>
