/* XPM */
static char *ebrow_xpm32[] = {
"32 32 116 2 0 0",
"   c #000000",
"!  c #010101",
"#  c #090909",
"$  c #040404",
"%  c #181818",
"&  c #6C6C6C",
"'  c #8E8E8E",
"(  c #A4A4A4",
")  c #A2A2A2",
"*  c #A7A7A7",
"+  c #8D8D8D",
",  c #343434",
"-  c #707070",
".  c #2B2B2B",
"/  c #1F1F1F",
"0  c #9F9F9F",
"1  c #242424",
"2  c #030303",
"3  c #606060",
"4  c #D9D9D9",
"5  c #9C9C9C",
"6  c #020202",
"7  c #060606",
"8  c #0A0A0A",
"9  c #0F0F0F",
":  c #0D0E0E",
";  c #353E41",
"<  c #7E7E7E",
"=  c #FBFBFB",
">  c #909090",
"?  c #121212",
"@  c #2D2D2D",
"A  c #CCCCCC",
"B  c #FFFFFF",
"C  c #D3D3D3",
"D  c #050505",
"E  c #070707",
"F  c #0D0D0D",
"G  c #333333",
"H  c #72858C",
"I  c #111314",
"J  c #B8B8B8",
"K  c #EDEDED",
"L  c #6A6A6A",
"M  c #525252",
"N  c #F4F4F4",
"O  c #5D5D5D",
"P  c #829298",
"Q  c #5E6F76",
"R  c #3D3D3D",
"S  c #989898",
"T  c #191919",
"U  c #929292",
"V  c #131313",
"W  c #40484B",
"X  c #A2B5BC",
"Y  c #1D1F20",
"Z  c #CBCBCB",
"[  c #3F3F3F",
"]  c #212121",
"^  c #BDBDBD",
"_  c #2B3336",
"`  c #B5D6E2",
"a  c #4C5254",
"b  c #E1E1E1",
"c  c #515151",
"d  c #737373",
"e  c #1C2224",
"f  c #ADCDD8",
"g  c #A9C7D2",
"h  c #4F4F4F",
"i  c #2A2A2A",
"j  c #252525",
"k  c #2E2E2E",
"l  c #282828",
"m  c #F5F5F5",
"n  c #B4B4B4",
"o  c #373737",
"p  c #E9E9E9",
"q  c #5F5F5F",
"r  c #0E1112",
"s  c #9BBCC2",
"t  c #BEE1EE",
"u  c #4C595E",
"v  c #404040",
"w  c #FDFDFD",
"x  c #7B7B7B",
"y  c #1A1A1A",
"z  c #B1B1B1",
"{  c #D6D6D6",
"|  c #5A7267",
"}  c #BAB047",
"~  c #8BA89F",
" ! c #181819",
"!! c #BBBBBB",
"#! c #4D4D4D",
"$! c #454545",
"%! c #C2C2C2",
"&! c #A1A1A1",
"'! c #3E4D48",
"(! c #BAD576",
")! c #3D4D48",
"*! c #848484",
"+! c #EEEEEE",
",! c #717171",
"-! c #949494",
".! c #323232",
"/! c #232323",
"0! c #A0A0A0",
"1! c #818181",
"2! c #4E4E4E",
"3! c #767676",
"4! c #8F8F8F",
"5! c #6F6F6F",
"6! c #1D1D1D",
"7! c None",
"7!7!7!7!7!7!7!7!7!7!7!7!7!            7!7!7!7!7!7!7!7!7!7!7!7!7!",
"7!7!7!7!7!7!7!7!7!7!                        7!7!7!7!7!7!7!7!7!7!",
"7!7!7!7!7!7!7!7!                                7!7!7!7!7!7!7!7!",
"7!7!7!7!7!7!7!      7!7!7!7!7!7!7!7!7!7!7!        7!7!7!7!7!7!7!",
"7!7!7!7!7!7!      7!7!7!7!7!7!7!7!7!7!7!7!7!7!      7!7!7!7!7!7!",
"7!7!7!7!7!      7!7!7!7!7!7!7!7!7!7!7!7!7!7!7!7!      7!7!7!7!7!",
"7!7!7!7!7!    7!7!7!7!7!7!7!7!7!7!7!7!7!7!7!7!7!7!    7!7!7!7!7!",
"7!7!7!7!    7!7!7!7!7!7!7!7!7!7!7!7!7!7!7!7!7!7!7!7!    7!7!7!7!",
"7!7!      7!7!7!7!7!7!7!    ! # # $     7!7!7!7!7!7!7!      7!7!",
"        7!7!7!7!7!7!    % & ' ( ) * + ,     7!7!7!7!7!7!        ",
"    7!7!7!7!7!7!7!  # - ) .         / ) 0 1     7!7!7!7!7!7!    ",
"7!7!7!7!7!7!7!  2 3 4 5 6 7 # 8 9 : ;   < = > ?   7!7!7!7!7!7!7!",
"7!7!7!7!7!7!  @ A B C D   E 8 F G H I   ! J B K L 6   7!7!7!7!7!",
"7!7!7!7!    M N B B O         2 P Q       R B B B S 9   7!7!7!7!",
"7!      T U B B B B %     ? V W X Y V $   2 N B B B Z [       7!",
"      ] ^ B B B B B 6       _ ` a $ 6 $ $ $ b B B B B K c       ",
"7!7!    F d = B B B T     e f g h / i j k l m B B B n l       7!",
"7!7!7!7!    o p B B q   r s t u .         v B B w x E   7!7!7!7!",
"7!7!7!7!7!7!  y z = { E | } ~  !. V V F ! !!B 4 #!  7!7!7!7!7!7!",
"7!7!7!7!7!7!7!    $!%!&!'!(!)!          *!+!,!E   7!7!7!7!7!7!7!",
"7!7!7!7!7!7!7!7!7!  6 c -!.!        /!0!1!?   7!7!7!7!7!7!7!7!7!",
"7!7!7!7!7!7!7!7!7!7!7!  F 2!3!U 4!U 5!6!    7!7!7!7!7!7!7!7!7!7!",
"7!7!7!7!7!7!7!7!7!7!7!7!7!              7!7!7!7!7!7!7!7!7!7!7!7!",
"7!7!7!7!7!7!7!7!7!7!7!7!7!7!7!7!7!7!7!7!7!7!7!7!7!7!7!7!7!7!7!7!",
"7!7!7!7!7!7!7!7!7!7!7!7!7!7!7!7!7!7!7!7!7!7!7!7!7!7!7!7!7!7!7!7!",
"7!7!7!7!7!7!7!7!7!7!7!7!7!7!7!7!7!7!7!7!7!7!7!7!7!7!7!7!7!7!7!7!",
"7!7!7!7!7!7!7!7!7!7!7!7!7!7!7!7!7!7!7!7!7!7!7!7!7!7!7!7!7!7!7!7!",
"7!7!7!7!7!7!7!7!7!7!7!7!7!7!7!7!7!7!7!7!7!7!7!7!7!7!7!7!7!7!7!7!",
"7!7!7!7!7!7!7!7!7!7!7!7!7!7!7!7!7!7!7!7!7!7!7!7!7!7!7!7!7!7!7!7!",
"7!7!7!7!7!7!7!7!7!7!7!7!7!7!7!7!7!7!7!7!7!7!7!7!7!7!7!7!7!7!7!7!",
"7!7!7!7!7!7!7!7!7!7!7!7!7!7!7!7!7!7!7!7!7!7!7!7!7!7!7!7!7!7!7!7!",
"7!7!7!7!7!7!7!7!7!7!7!7!7!7!7!7!7!7!7!7!7!7!7!7!7!7!7!7!7!7!7!7!"
};
