<svg xmlns="http://www.w3.org/2000/svg" viewBox="0 0 2500 300"><defs id="defs6187">
    <style id="style6185">.cls-1,.cls-2{fill:#666;}.cls-2{fill-rule:evenodd;}.cls-3{fill:#009dd4;}.cls-4{fill:#008c57;}.cls-5{fill:#1f5413;}.cls-6{fill:#13b3b0;}</style>
  </defs><defs><style>.minerva-base-style{}</style></defs><g transform="translate(0 0) scale(1.4285714285714286) translate(0 0)" style="fill: #656767;"><title>minerva</title><path d="M105,0A105,105,0,1,0,210,105,105.1,105.1,0,0,0,105,0Zm0,207.1A102.1,102.1,0,1,1,207.1,105,102.2,102.2,0,0,1,105,207.1Z"/><path class="minerva-base-style" d="M166.6,97c-1.4-3.1-.5-5.1-.9-7.3s-2.7-7-4.3-10.8c-.7-1.7,3.8-1.3.4-7.6,0-.2,4.7-2,0-5.5a26.4,26.4,0,0,1-6-6.7,1,1,0,0,1,0-1.3c2.7-2.4,2.8-5.8-.1-7.5s-4.5,0-6.7,1.4c-.7.5-1.1.8-1.9.5L145.3,51c2.7-2.6,3.3-5.2,3.1-5.6s-4.6-1.3-10.2,1l-.4-.3c2.3-3.9,1-6.7.9-6.9h-.1A81,81,0,0,1,151,25.9h.1c.2-.3.3-.6-.2-.9l-1-.6A92.4,92.4,0,0,0,12.7,105c0,29.5,15,57.9,39.4,75.6a13.5,13.5,0,0,0,2.8,1.6A1.1,1.1,0,0,0,56,182l.3-.5a1,1,0,0,0,.3-.8c0-.7-.9-1.3-2.1-3a27.7,27.7,0,0,1-4.7-15.1,22.1,22.1,0,0,1,4.5-13.7c3.7,3.9,11.7,10.9,11.5,17.4s-6.9,6.8-5.4,12.2c.9,3.4,3.4,2,3.9,4.6.7,4.4,6.7,7.3,9.3,6.9.7-.1,1.2.4,2.4,1.7s6.2,1.6,8.2,1.2,4.1,1.4,8,.9,6.1-.9,8.2-.9,22.5-.3,36,1.8c2.4.4,3.1-.7,2.1-2.5-4.9-8.6-5.6-15.8-2.8-25,5,.4,12.2,1.7,21.6-4a11,11,0,0,0,5.1-9.5c-.1-2.1-1-4.7-.5-6.7s1.3-2.7,2.1-3.2c3.6-2.6,1-4.6.4-4.8a3.4,3.4,0,0,0,1.1-4.6c-.7-.7-2.7-6.2-.4-7.3s5.3-1.8,8.1-3.1a4.5,4.5,0,0,0,2.4-6C174.2,114.4,166.8,97.4,166.6,97ZM64.7,179.1c-.7.2-2.9.3-2.4-2.7s2.3-2.6,3.3-1.6S64.9,177.6,64.7,179.1Zm87-125.9c1.2-.8,2.5-1.1,3.3-.4,2.6,2.6-2.9,4.1-1.8,6.1a30.7,30.7,0,0,0,7.5,8.4c1.2,1,1.4,3.1-3.3,4.1s-23.6,5.9-33.6,16.5c-12.5,13.2-20.4,30.3-21.5,28s-3.6-2.8-3.2-3.5C117,81.6,145.1,57.3,151.7,53.2Zm8.2,21.7c-1,2.9-9.1,5.5-8.7,3.5s0-2.2.6-2.3,3.5-1.1,7.5-2.1C159.7,73.9,160.2,74.1,159.9,74.9Zm-20.6,5.3c-.2-1.2,8.5-4.1,8.8-3.3s-1.8,6-4.7,7-4.7.9-4.6.4A11,11,0,0,0,139.3,80.2ZM119,125.8c-4,2.5-6.2-2.2-6.8-3.1a3.7,3.7,0,0,1-.5-3.1c.3-1.4.5-3.3-.4-9.3-.4-2.7,5-9.2,6.3-10.4s3.1.6,3.2,2.6c.3,3.6-1.8,5.6-3.9,7.2s-3.1,4.4-2.6,5.1a1.5,1.5,0,0,0,1.9-.9c1.5-3.3,6-4.9,6.7-6.7s.3-4.4.2-5.6.9-1.2,1.6-1.1,1.4,1.4,1.8,2.7c2.9,7.5-4.3,12-5.5,13.8S122.1,123.9,119,125.8Zm6.1-29.1c-2.2,1.5-5.3-.5-4.7-1.4a43.7,43.7,0,0,1,11.5-11c3.4-2.1,3.8-2.3,4-1.1a10.6,10.6,0,0,1-2.6,7.5c-2.3,2.5-4.6,2.3-5.8,2.6S126.7,95.6,125.1,96.7Zm-19.3,25.6c-1-.2-1.4-2.1-1.2-2.9s3.1-5.2,4-6.4a.5.5,0,0,1,.8.3C110,117.4,109.4,123.1,105.8,122.3ZM138,48.2a17.7,17.7,0,0,1,7.5-1.6c.8.1-1.9,4.8-6.6,6.8s-8.5,2.5-8.9,2.3S134.1,49.9,138,48.2ZM54.7,126.5c-1.5-1.7-2.8-2.6-2.9-2.5a22.4,22.4,0,0,0-3.6,8.9A65.4,65.4,0,0,1,40.7,105C39.3,69.6,69,41.1,105.2,41.2a56.8,56.8,0,0,1,22.4,4.6,31.3,31.3,0,0,0-3.7,6.6c0-1.9-.5-3.4-.4-4.6s-5.1.9-9.7,8.3a19.9,19.9,0,0,0-2.2,5.3c-.1-2.8-.7-4.9-.9-4.9a16.1,16.1,0,0,0-8.5,8.8,22.4,22.4,0,0,0-1.1,3.4c-.2-1.9-.7-3.2-.9-3.2s-5.9,2.3-8.6,8.9A15.4,15.4,0,0,0,90.5,79c-.5-2.3-1.4-3.7-1.7-3.4-1.9,2.4-5.7,3.5-7.6,9.6a13.2,13.2,0,0,0-.7,4.2c-.8-2-2-3.2-2.3-3.2s-6.1,5.5-7,10.9a15.8,15.8,0,0,0,.2,5.8c-1.1-1.8-2.5-3-3.1-4.8-.9.5-5.7,5-5.8,10.7a19.7,19.7,0,0,0,.7,6.1c-1.6-2.9-3.8-4.2-4.1-4.1s-4,4.1-4.8,11.1A11.8,11.8,0,0,0,54.7,126.5Zm74.1-79.7c2.8-3.4,7.6-6.1,8.2-5.8s-.8,5.6-3.9,8.6-8.1,6.2-8.6,6.1S126.2,49.8,128.8,46.8Zm-9.3,13a21,21,0,0,0-5.6,6.4c-.5.9-1.9-5,1.7-10.6,2.2-3.5,6.6-6.6,6.5-6.2S124.2,56,119.5,59.8Zm-10.1,7.5c-3.4,5.1-3.6,3.3-7.3,8.3-.2.2-.2-6.5,1.1-9.4,2.1-4.7,5.7-7.4,6.2-7.5S111.3,64.5,109.4,67.3ZM98.3,77.4c-1.7,3-3.3,2.3-6.2,6.7-.3.4-1.1-3.6.7-9.1a12.6,12.6,0,0,1,5.9-6.9C99.3,68,100.4,73.8,98.3,77.4ZM88,88.1c-1.8,3.9-2.9,4-5,6.4-.3.4-1.8-3.7-.4-8.8s4-5.6,5.3-7S89.9,84,88,88.1Zm-8.4,6.6a10.3,10.3,0,0,1-.4,3c-1.3,4.3-3.9,6.2-5.3,8.1a15.7,15.7,0,0,1-1.6-5.8,15.2,15.2,0,0,1,5.2-11.2C78.3,88.8,79.6,92,79.6,94.7Zm-8.5,12.8A14.9,14.9,0,0,1,66,118.3a17.7,17.7,0,0,1-2.2-7.6c-.2-6.3,2.4-8.5,3.6-9.7C67.9,102.8,71.1,104.2,71.1,107.5ZM59,113.8c1.8.9,3.9,3.4,4.1,8.2s-3.2,8.7-4.6,9.4c-.9-3.7-2.6-4.4-2.6-8A18,18,0,0,1,59,113.8Zm7.3,12.5c4.6-2,9.6-1.7,9.8-1.5s-1.5,5.9-5.9,8.2-9.5,2.7-10,2.1S61.7,128.3,66.3,126.3Zm-.4-3.4c.3-1.5,3-6.5,7.1-8.3h0a18.4,18.4,0,0,1,9.4-1.5c.5.2-1.7,5.6-5.8,7.6S70.1,121.6,65.9,122.9Zm6.9-11.8c.2-.4,3.5-6.4,7.4-8.2a17.5,17.5,0,0,1,8.9-1.4c.3.1-1.8,5.4-6.2,7.6S72.6,111.6,72.8,111.1Zm8.9-11.9c-.3-.2,4.4-6.4,8.4-8.3a15.6,15.6,0,0,1,8.4-1c.3.3-1.9,5.5-6.5,7.5A24.2,24.2,0,0,1,81.7,99.2ZM92.4,87.4c-.2-.2,3.4-6.3,7.4-7.9s7.7-.1,8.9,0-1.3,4.5-6.6,6.4S93.1,87.7,92.4,87.4Zm12-11.4c.1-.3,4.1-5.9,8.1-7.3a16.4,16.4,0,0,1,9.2-.2c.5.2-2.8,5-7.7,6.5S104.3,76.3,104.4,76Zm12.1-9.9c-.5-.3,4.3-5.7,8.2-7.2a18,18,0,0,1,8.3-1c.3.2-2.5,4.9-7.1,6.7S117.1,66.5,116.5,66.1ZM50.2,175.3C28.6,158.1,15.6,132.1,15.6,105A89.3,89.3,0,0,1,146.4,25.8a.4.4,0,0,1,.1.7,97.3,97.3,0,0,0-10.2,11.4,73.1,73.1,0,0,0-31.3-7A74.3,74.3,0,0,0,30.9,105a72.1,72.1,0,0,0,17.9,48.2,23.1,23.1,0,0,0-1.9,9.4A25.6,25.6,0,0,0,50.2,175.3Zm.2-24.8h-.1A69.2,69.2,0,0,1,33.9,105,71.2,71.2,0,0,1,105,33.9a70.1,70.1,0,0,1,29.6,6.4,22.6,22.6,0,0,0-4.1,2.6A63.1,63.1,0,0,0,105,37.8,67.3,67.3,0,0,0,37.8,105c0,16.1,5,30.2,14.8,42C52.1,147.9,51.3,149.1,50.4,150.5Zm3.5-5.6c-1.3-1.2-4.1-4.3-4.4-8.3V136c0-4.3,1.9-8.6,2.4-9s5.3,3.3,5.4,8.7A14.4,14.4,0,0,1,53.9,144.9Zm8-7.2c3.9-1.8,9.6-1.4,9.3-1.1s-1.8,5.8-6.2,8a12.1,12.1,0,0,1-8.7,1.3C58.6,143.3,58.1,139.5,61.9,137.7Zm5.2,46.5c-.6-2.7-.4-6.3.5-7.3s4.9-1.2,5-.1-1.1,5.4.3,10.2C72.6,187.7,68.3,187.4,67.1,184.2Zm.3-11.1c-.3-2,1.6-3.9,1.6-8.2s-6.6-12.6-11.1-17.3a19.5,19.5,0,0,0,7.9-1.9c6.6-3.1,7.9-10.1,8.1-10.4a11,11,0,0,0-3.8-.4l.8-.4c6.4-3.5,8.1-11,7.8-11.1a17,17,0,0,0-4-.3l2-.7c6.8-2.7,8.7-10.3,8.5-10.6a16.1,16.1,0,0,0-3.5-.4l1.9-.8c6.2-3.1,8.4-10.1,8.1-10.3a10.5,10.5,0,0,0-3.3-.4,23.7,23.7,0,0,0,4.5-1.5c6.7-2.9,8.9-9.3,8.6-9.6a10.9,10.9,0,0,0-3-.5,34.5,34.5,0,0,0,4.4-1.3c6.6-2.2,9.2-8.5,8.8-8.6l-3.7-.8a24.5,24.5,0,0,0,6.6-1.3c7.1-2.4,9.6-6.7,9.8-8.6a6,6,0,0,0-2.3-.8,29.3,29.3,0,0,0,4.7-1.2c6.6-2.7,9.4-9.3,9.6-9.8a29.3,29.3,0,0,0,3.9-1.6l1.9-.9,1.6,1.1c1,.6,1.4.8.9,1.2C122,75,105,99.5,97.6,111.3c-.2.4-.6.3-1.3.3-7.9-.6-12.4,8.9-8.9,17.8-.4,1.8-4.2,5.3-4.5,5.5s-1,1.4.3,1.3,4.2-3.2,5.4-4.5c.4.6,2.2,2,1.3,2.8A63.6,63.6,0,0,1,76,145c-2.6,1.2,4.2,2.1,15.7-8.3.7-.6,1.5,2.4,2.5,3.7-2,6.5,2.9,19.1,2.1,23a2.8,2.8,0,0,1-2.8,2.7c-11.4.3-12.5-.3-18.3,1.4-2.7.8-2,2.6-.1,2.1s4.6-1.5,16.9-.7c3.1.1,6.5-.6,6.5-5.7s-3.6-18.4-2.4-20.3a6.9,6.9,0,0,0,3.5,1.4c-.2,4.5,7,19,3.8,27-1.2,3-6.4,2.7-15.4,1.8C72.7,171.6,67.7,174.9,67.4,173.1Zm35.1,9.9c-5.9,2-8.3-4.9-7.3-6.4s4.4,1,7.3-.9S106,181.8,102.5,183Zm-27,4.3c-.8-3.7-1.1-10,.4-11.5s4.9-.9,4.8.2c-.3,4.3-2.1,9.2,1.2,14.1C83.2,192,76.7,192.3,75.5,187.3Zm11.4,4.2c-1.6-.4-6-7.4-2.4-15.8.3-.8,5.8-.3,6.8,0s-.8,6.8,6.8,9.8C98.8,185.8,98,194.3,86.9,191.5Zm47.2-23.3c-2.5,8.8-3.8,12.3,0,21.9.5,1.3.9,2.3-.2,2.1-7.7-1.4-9.4-2.6-33.7-.6-1.7.2.6-3.4.3-5.8,2.2-.3,5.8-1.3,6.5-4.9s-2.1-7.6-1.8-8.2c3.5-6.7-.2-14.1-3.1-26.6-.3-1.2.4-1.7.9-1.1,15.6,16.9,25.5,20.2,30.9,21.8C134.4,167,134.3,167.6,134.1,168.2ZM174,122.1c-3.3,2.9-8.3,3.1-10.3,4.9s-1.5,2.5-.4,5.2,1.1,1.7-1.1,2.3-4.1,5.8-8.8,4.9c-1.8-.3-.5.8.2.9,2.6.3,3.7-.5,4.6-1.4s2.2-2.4,3.6-2.9,2.9-.5,3,.6-1.9,2.1-2.7,2.5c1,.5,3.9,1.9,1.4,3.6s-4.6-.5-4.9-.7-1.7-.2-1.3.3,5.2,1.3,4.5,2.2c-3.5,4.7-.6,7.5-1.7,12.3s-7.7,7.5-12.8,8.4c-17.4,3.1-34.3-11.6-44.2-22.8.9-2.1.8-4.8-.1-3.8s-.7,2.4-2.8,2.9c-3.9,1-5.7-5.9-6.9-7.1-4.8-4.7-6.7-11.4-3.9-17.3s9-4.7,11.4-1.1,1.7,7,3.4,8.3,4.8.2,5.4,0,1.7,4.3,8,4.1,5.9-10.7,6.9-11.6c8.6-8.4,4.2-15.9,2.6-17.6s1-3.6,1.5-3.7a13,13,0,0,0,9.4-7.7s8.4-.2,11.4-6.2c.8-1.6,3.3,1.5,8.9-2.9a.8.8,0,0,1,1.4.3c3.7,8.9,5.2,11.3,4.9,15.8s8.7,21.5,9.4,23.1S174.8,121.3,174,122.1Z"/><path class="minerva-base-style" d="M153.8,90c-4.9.2-10.6,6.2-12.4,7s-1.3,1.5-.2,1.1,5.9-4.7,10.7-6.4,3.6,1.8,5,1.6S156.6,89.9,153.8,90Z"/><path class="minerva-base-style" d="M154.9,94.8c-.4.1.4,2.2-1.7,2.3-4.6.3-8.3,4.7-11.1,6a12.9,12.9,0,0,1-3.8,1.4.3.3,0,0,0,.1.6c11.7,1.6,16.2,1.1,16.3.7s-.6-1.2-.4-1.7a11.3,11.3,0,0,0,.1-5.5c-.2-.8,1.8-.3,1.8-1.3S155.6,94.7,154.9,94.8Zm-1.8,9.3c-.2.9-5.5.5-8.3.2-.7,0-1.8-.1.3-1.4s4.1-2.8,7.2-3.4a.8.8,0,0,1,.8.6A10.6,10.6,0,0,1,153.1,104.1Z"/><path class="minerva-base-style" d="M168.4,120.8c-.9,0-4.5,1.6-5.9,2.5s-4.4,2.7-4.2-.8c.1-1.3.9-4.4.9-5.3s-1-.7-1.1,0a36.9,36.9,0,0,1-.7,5.3c-.4,1.8,1.2,4,3.6,2.7s4.8-2.9,7.3-3.4C168.9,121.7,169,120.8,168.4,120.8Z"/><path class="minerva-base-style" d="M100.5,133.6c-.7-.3-.5,1.2-1.4,1s-.2-1.3-1.8-3-2.8-1.2-4.3-3.6-.3-12,3.1-10.8,1.6,5,1,8,2.5,2.8,2.8,2.1-1.1-.9-1.4-1.9,3.5-7.6-1.8-9.4c-3.8-1.3-6.4,3.6-5.9,8.9a8,8,0,0,0,5.1,7.1c2.3.8.6,4,3.7,4C101,136,101.3,133.9,100.5,133.6Z"/><path class="minerva-base-style" d="M131.3,33.4c.2.1.3,0,.5-.1l6.5-8.3a.5.5,0,0,0-.2-.6L137,24a.4.4,0,0,0-.5.1L130,32.4c-.2.2-.1.5.2.6Z"/><path class="minerva-base-style" d="M119.2,30l1.1.3a.5.5,0,0,0,.5-.3l3.8-9.4a.4.4,0,0,0-.3-.6l-1.2-.2h-.3l-3.9,9.6A.4.4,0,0,0,119.2,30Z"/><path class="minerva-base-style" d="M105.8,28.7h1.1c.2.1.4-.1.4-.3l1-10a.5.5,0,0,0-.4-.5h-1.1c-.3,0-.4.2-.5.4l-.9,10A.4.4,0,0,0,105.8,28.7Z"/><path class="minerva-base-style" d="M92.8,29.7l1.1-.2c.2,0,.4-.2.3-.4l-1.9-9.9c0-.2-.2-.4-.4-.3H90.7c-.2.1-.4.3-.3.5l1.9,9.9C92.3,29.6,92.5,29.7,92.8,29.7Z"/><path class="minerva-base-style" d="M79.4,32.8l.5.2,1.1-.4a.4.4,0,0,0,.3-.6l-4.6-9a.4.4,0,0,0-.5-.2l-1,.3a.4.4,0,0,0-.3.6Z"/><path class="minerva-base-style" d="M67,38.5c.1.2.3.2.5.1l1-.6a.4.4,0,0,0,.1-.6l-6.7-7.7c-.2-.2-.4-.2-.5-.1l-1,.6c-.3.1-.3.4-.1.6Z"/><path class="minerva-base-style" d="M55.4,46.7c.2.1.4.1.5-.1l.9-.7a.5.5,0,0,0,0-.7l-8.5-5.9h-.5l-.9.8a.5.5,0,0,0,0,.7Z"/><path class="minerva-base-style" d="M45.4,57.1a.4.4,0,0,0,.4-.2l.8-.9c.2-.2.1-.5-.2-.6l-9.8-3.8c-.2-.1-.4-.1-.5.1l-.7.9a.4.4,0,0,0,.2.7Z"/><path class="minerva-base-style" d="M26.8,67.8l10.5,1.5c.2,0,.4-.1.4-.3l.6-1a.4.4,0,0,0-.3-.6L27.5,65.9l-.5.2a5.4,5.4,0,0,1-.5,1.1A.4.4,0,0,0,26.8,67.8Z"/><path class="minerva-base-style" d="M21.1,83.7l10.7-1a.3.3,0,0,0,.3-.3,7.6,7.6,0,0,0,.4-1.1.4.4,0,0,0-.4-.6l-10.8,1-.4.3-.3,1.2C20.6,83.5,20.8,83.8,21.1,83.7Z"/><path class="minerva-base-style" d="M29.2,96.5c0-.4.1-.9.1-1.3s-.2-.5-.5-.4L18.4,98.4c-.2.1-.3.2-.3.4s-.1.8-.1,1.2a.4.4,0,0,0,.6.4l10.3-3.6A.3.3,0,0,0,29.2,96.5Z"/><path class="minerva-base-style" d="M28.9,110.8v-1.3a.5.5,0,0,0-.7-.4l-9.4,6.3c-.2,0-.2.2-.2.4s.1.8.1,1.2a.5.5,0,0,0,.7.3l9.4-6.2C28.9,111,29,110.9,28.9,110.8Z"/><path class="minerva-base-style" d="M31.3,125l-.3-1.3a.4.4,0,0,0-.7-.2L22.6,132c-.1.1-.2.3-.1.4s.3.8.4,1.2a.4.4,0,0,0,.7.2l7.6-8.4C31.3,125.3,31.3,125.2,31.3,125Z"/><path class="minerva-base-style" d="M35.2,137.7,29.8,148c-.1.1,0,.3,0,.4l.7,1.2a.4.4,0,0,0,.7-.1l5.4-10.2c0-.1.1-.2,0-.4l-.6-1.2A.5.5,0,0,0,35.2,137.7Z"/><path class="minerva-base-style" d="M42.9,149.3c-.2-.3-.7-.2-.7.1l-2.9,12c-.1.2,0,.3,0,.4l1,1a.4.4,0,0,0,.7-.1l2.8-11.9c.1-.1,0-.2,0-.3Z"/></g><rect x="366.666" y="0" width="2.65" height="300" style="fill: transparent"/><g transform="translate(435.98199999999997 60) scale(1.381625122734365) translate(0 0)"><title id="title6189">cbs-desktop-de</title><path style="fill:#666666" id="path6191" d="M 12.29,0.62135629 23.29,31.561356 34.19,0.62135629 H 45.73 V 43.281356 h -8.82 v -11.66 l 0.88,-20.13 -11.55,31.79 h -6 l -11.52,-31.76 0.88,20.1 v 11.66 H 0.81 V 0.62135629 Z" class="cls-1"/><path style="fill:#666666" id="path6193" d="M 79.54,34.491356 H 64.13 l -2.93,8.79 H 51.85 L 67.73,0.62135629 h 8.14 l 16,42.65999971 H 82.5 Z m -13,-7.12 H 77.2 l -5.36,-16 z" class="cls-1"/><path style="fill:#666666" id="path6195" d="m 112.65,15.331356 8,-14.70999971 h 10.11 l -12.43,21.15999971 12.75,21.5 h -10.23 l -8.2,-14.94 -8.2,14.94 H 94.22 L 107,21.781356 94.54,0.62135629 h 10.11 z" class="cls-1"/><path style="fill:#666666" id="path6197" d="m 148.4,28.431356 h -16.5 v -6.83 h 16.5 z" class="cls-1"/><path style="fill:#666666" id="path6199" d="m 166.1,28.281356 v 15 h -8.79 V 0.62135629 H 174 a 20.13,20.13 0 0 1 6.75,1.05000001 14.58,14.58 0 0 1 5,2.94 12.58,12.58 0 0 1 3.15,4.48 14.48,14.48 0 0 1 1.1,5.6499997 13.89,13.89 0 0 1 -1.08,5.6 11.57,11.57 0 0 1 -3.15,4.25 14.49,14.49 0 0 1 -5,2.71 22.12,22.12 0 0 1 -6.77,0.98 z m 0,-7.12 h 7.9 a 10,10 0 0 0 3.24,-0.47 5.92,5.92 0 0 0 2.23,-1.3 5.09,5.09 0 0 0 1.27,-2 7.67,7.67 0 0 0 0.41,-2.55 8.6,8.6 0 0 0 -0.41,-2.65 6.3,6.3 0 0 0 -1.27,-2.2599997 6.15,6.15 0 0 0 -2.28,-1.65 8.16,8.16 0 0 0 -3.24,-0.59 h -7.85 z" class="cls-1"/><path style="fill:#666666" id="path6201" d="M 206.36,36.221356 H 225 v 7.06 H 197.57 V 0.62135629 h 8.79 z" class="cls-1"/><path style="fill:#666666" id="path6203" d="m 256.26,34.491356 h -15.41 l -2.93,8.79 h -9.35 L 244.45,0.62135629 h 8.14 l 16,42.65999971 h -9.35 z m -13,-7.12 h 10.66 l -5.36,-16 z" class="cls-1"/><path style="fill:#666666" id="path6205" d="M 308.8,43.281356 H 300 l -17.1,-28.07 v 28.07 h -8.79 V 0.62135629 h 8.79 L 300,28.751356 V 0.62135629 h 8.76 z" class="cls-1"/><path style="fill:#666666" id="path6207" d="m 351.52,29.071356 a 17.46,17.46 0 0 1 -1.46,6 13.89,13.89 0 0 1 -3.4,4.67 15.56,15.56 0 0 1 -5.26,3 21,21 0 0 1 -7,1.1 18.29,18.29 0 0 1 -7.4,-1.39 15.05,15.05 0 0 1 -5.54,-4.09 18.56,18.56 0 0 1 -3.46,-6.46 27.82,27.82 0 0 1 -1.22,-8.51 v -2.82 a 27.06,27.06 0 0 1 1.22,-8.52 18.82,18.82 0 0 1 3.56,-6.4699997 15.45,15.45 0 0 1 5.58,-4.1 18.08,18.08 0 0 1 7.32,-1.44000001 20.32,20.32 0 0 1 7,1.13000001 15.14,15.14 0 0 1 5.2,3.13 14.26,14.26 0 0 1 3.34,4.78 20,20 0 0 1 1.52,5.9999997 h -8.79 a 13.34,13.34 0 0 0 -0.66,-3.37 6.61,6.61 0 0 0 -1.42,-2.4299997 6.12,6.12 0 0 0 -2.49,-1.51 11.65,11.65 0 0 0 -3.69,-0.51 7.46,7.46 0 0 0 -6.64,3.2399997 q -2.18,3.24 -2.18,10 v 2.87 a 30.74,30.74 0 0 0 0.48,5.8 12.24,12.24 0 0 0 1.52,4.16 6.69,6.69 0 0 0 2.7,2.5 8.79,8.79 0 0 0 4,0.83 12.17,12.17 0 0 0 3.59,-0.47 6.09,6.09 0 0 0 4.06,-3.78 11.76,11.76 0 0 0 0.7,-3.34 z" class="cls-1"/><path style="fill:#666666" id="path6209" d="m 372.21,26.171356 -4.57,4.92 v 12.19 h -8.79 V 0.62135629 h 8.79 V 19.961356 l 3.87,-5.3 10.87,-13.99999971 h 10.81 L 378,19.581356 l 15.63,23.7 h -10.46 z" class="cls-1"/><path style="fill:#666666" id="path6211" d="m 409.6,28.431356 h -16.49 v -6.83 h 16.49 z" class="cls-1"/><path style="fill:#666666" id="path6213" d="m 427.86,43.281356 h -8.79 V 0.62135629 h 8.79 z" class="cls-1"/><path style="fill:#666666" id="path6215" d="m 472.25,43.281356 h -8.79 l -17.11,-28.07 v 28.07 h -8.79 V 0.62135629 h 8.79 L 463.49,28.751356 V 0.62135629 h 8.76 z" class="cls-1"/><path style="fill:#666666" id="path6217" d="m 503.61,32.091356 a 5.89,5.89 0 0 0 -0.32,-2 3.9,3.9 0 0 0 -1.29,-1.66 11.39,11.39 0 0 0 -2.55,-1.49 40.23,40.23 0 0 0 -4.2,-1.55 51.54,51.54 0 0 1 -5.48,-2.11 20.32,20.32 0 0 1 -4.54,-2.77 12.33,12.33 0 0 1 -3.08,-3.68 10,10 0 0 1 -1.15,-4.87 10.36,10.36 0 0 1 1.16,-4.8799997 11,11 0 0 1 3.27,-3.8 16,16 0 0 1 5,-2.42000001 22,22 0 0 1 6.34,-0.86 20,20 0 0 1 6.45,1.00000001 14.8,14.8 0 0 1 5,2.74 12.13,12.13 0 0 1 3.16,4.17 12.49,12.49 0 0 1 1.11,5.2899997 h -8.79 a 7.1,7.1 0 0 0 -0.42,-2.49 5.06,5.06 0 0 0 -1.3,-1.9999997 6.06,6.06 0 0 0 -2.2,-1.27 9.55,9.55 0 0 0 -3.11,-0.45 10.54,10.54 0 0 0 -3,0.38 6.1,6.1 0 0 0 -2.11,1.05 4.43,4.43 0 0 0 -1.26,1.5799997 4.51,4.51 0 0 0 -0.42,1.93 4.15,4.15 0 0 0 2.12,3.59 24.32,24.32 0 0 0 6.31,2.65 41.54,41.54 0 0 1 6.14,2.4 18.26,18.26 0 0 1 4.42,3 11.4,11.4 0 0 1 2.65,3.71 11.69,11.69 0 0 1 0.91,4.72 11.05,11.05 0 0 1 -1.1,5 10.35,10.35 0 0 1 -3.12,3.71 14.77,14.77 0 0 1 -4.88,2.31 23.45,23.45 0 0 1 -6.37,0.81 24.62,24.62 0 0 1 -4.22,-0.37 20.29,20.29 0 0 1 -4,-1.13 17.5,17.5 0 0 1 -3.56,-1.9 13.13,13.13 0 0 1 -2.86,-2.7 12.15,12.15 0 0 1 -1.9,-3.53 13.25,13.25 0 0 1 -0.69,-4.38 h 8.82 a 7.87,7.87 0 0 0 0.62,3.28 5.61,5.61 0 0 0 1.68,2.18 7.13,7.13 0 0 0 2.65,1.22 14.52,14.52 0 0 0 3.46,0.38 10.66,10.66 0 0 0 3,-0.37 6.08,6.08 0 0 0 2.08,-1 4,4 0 0 0 1.22,-1.54 4.69,4.69 0 0 0 0.35,-1.88 z" class="cls-1"/><path style="fill:#666666" id="path6219" d="M 552,7.7413563 H 539 V 43.281356 h -8.79 V 7.7413563 H 517.3 V 0.62135629 H 552 Z" class="cls-1"/><path style="fill:#666666" id="path6221" d="m 568,43.281356 h -8.79 V 0.62135629 H 568 Z" class="cls-1"/><path style="fill:#666666" id="path6223" d="M 608.92,7.7413563 H 595.86 V 43.281356 h -8.79 V 7.7413563 H 574.18 V 0.62135629 h 34.75 z" class="cls-1"/><path style="fill:#666666" id="path6225" d="M 647.78,0.62135629 V 28.781356 a 16.2,16.2 0 0 1 -1.23,6.5 13.21,13.21 0 0 1 -3.4,4.73 14.42,14.42 0 0 1 -5.15,2.89 22.76,22.76 0 0 1 -13.12,0 14.42,14.42 0 0 1 -5.17,-2.87 13.05,13.05 0 0 1 -3.41,-4.75 16.37,16.37 0 0 1 -1.22,-6.52 V 0.62135629 h 8.79 V 28.781356 q 0,4.19 2,6.11 a 9,9 0 0 0 11.1,0 q 2,-1.92 2,-6.11 V 0.62135629 Z" class="cls-1"/><path style="fill:#666666" id="path6227" d="M 688.65,7.7413563 H 675.59 V 43.281356 H 666.8 V 7.7413563 H 653.91 V 0.62135629 h 34.75 z" class="cls-1"/><path style="fill:#666666" id="path6229" d="M 15,83.351356 H 3.7 v 11.93 H 0.14 v -27 h 16.74 v 2.93 H 3.7 v 9.24 H 15 Z" class="cls-1"/><path style="fill:#666666" id="path6231" d="m 41.15,68.281356 v 18.29 a 9.34,9.34 0 0 1 -0.8,4 8.17,8.17 0 0 1 -2.14,2.84 9,9 0 0 1 -3.13,1.7 12.29,12.29 0 0 1 -3.75,0.57 12.6,12.6 0 0 1 -3.84,-0.57 8.66,8.66 0 0 1 -3.09,-1.7 7.89,7.89 0 0 1 -2.06,-2.84 9.83,9.83 0 0 1 -0.75,-4 v -18.29 h 3.53 v 18.29 a 7.47,7.47 0 0 0 0.45,2.74 5.22,5.22 0 0 0 1.27,1.93 5.1,5.1 0 0 0 2,1.14 8.14,8.14 0 0 0 2.53,0.37 8.29,8.29 0 0 0 2.56,-0.37 5,5 0 0 0 3.23,-3.07 7.62,7.62 0 0 0 0.45,-2.74 v -18.29 z m -15.73,-4.17 a 2,2 0 0 1 0.51,-1.4 1.93,1.93 0 0 1 1.51,-0.57 2,2 0 0 1 1.52,0.57 2,2 0 0 1 0.52,1.4 2,2 0 0 1 -0.52,1.39 2,2 0 0 1 -1.52,0.56 2,2 0 0 1 -1.51,-0.56 2,2 0 0 1 -0.52,-1.41 z m 8,0 a 2,2 0 0 1 0.51,-1.41 1.92,1.92 0 0 1 1.51,-0.58 2,2 0 0 1 1.52,0.58 2,2 0 0 1 0.52,1.41 2,2 0 0 1 -0.52,1.39 2,2 0 0 1 -1.52,0.56 2,2 0 0 1 -1.51,-0.56 2,2 0 0 1 -0.54,-1.37 z" class="cls-1"/><path style="fill:#666666" id="path6233" d="m 57.66,84.351356 h -6.35 v 10.93 h -3.58 v -27 h 8.94 q 4.56,0 7,2.08 a 7.48,7.48 0 0 1 2.46,6 7.27,7.27 0 0 1 -1.36,4.4 8.14,8.14 0 0 1 -3.79,2.8 l 6.35,11.47 v 0.25 h -3.82 z m -6.35,-2.91 h 5.47 a 7.34,7.34 0 0 0 2.53,-0.4 5.28,5.28 0 0 0 1.81,-1.08 4.35,4.35 0 0 0 1.09,-1.6 5.35,5.35 0 0 0 0.36,-2 6.26,6.26 0 0 0 -0.34,-2.12 4.18,4.18 0 0 0 -1.07,-1.64 4.87,4.87 0 0 0 -1.84,-1.06 8.44,8.44 0 0 0 -2.65,-0.37 h -5.36 z" class="cls-1"/><path style="fill:#666666" id="path6235" d="m 89.4,82.721356 -3.3,3.43 v 9.13 h -3.56 v -27 h 3.56 v 13.36 l 2.93,-3.27 9.07,-10.09 h 4.3 l -10.63,11.93 11.47,15.07 H 99 Z" class="cls-1"/><path style="fill:#666666" id="path6237" d="m 127.56,82.641356 a 17.83,17.83 0 0 1 -0.77,5.45 12,12 0 0 1 -2.18,4.09 9.33,9.33 0 0 1 -3.41,2.58 10.89,10.89 0 0 1 -4.47,0.89 10.71,10.71 0 0 1 -4.4,-0.89 9.66,9.66 0 0 1 -3.45,-2.58 12,12 0 0 1 -2.25,-4.09 17.24,17.24 0 0 1 -0.8,-5.45 v -1.71 a 17.35,17.35 0 0 1 0.8,-5.45 12.19,12.19 0 0 1 2.23,-4.11 9.59,9.59 0 0 1 3.43,-2.59 10.6,10.6 0 0 1 4.4,-0.9 10.85,10.85 0 0 1 4.48,0.9 9.49,9.49 0 0 1 3.43,2.59 11.93,11.93 0 0 1 2.19,4.11 18,18 0 0 1 0.77,5.45 z m -3.56,-1.74 a 16.74,16.74 0 0 0 -0.49,-4.27 9,9 0 0 0 -1.44,-3.12 6.19,6.19 0 0 0 -2.31,-1.91 7.1,7.1 0 0 0 -3.09,-0.65 6.87,6.87 0 0 0 -3,0.65 6.28,6.28 0 0 0 -2.31,1.91 9.24,9.24 0 0 0 -1.48,3.12 15.87,15.87 0 0 0 -0.52,4.27 v 1.74 a 15.68,15.68 0 0 0 0.53,4.29 9.36,9.36 0 0 0 1.49,3.13 6.32,6.32 0 0 0 2.32,1.92 6.85,6.85 0 0 0 3,0.65 7.08,7.08 0 0 0 3.1,-0.65 6.1,6.1 0 0 0 2.29,-1.92 9.06,9.06 0 0 0 1.42,-3.13 17.12,17.12 0 0 0 0.48,-4.29 z" class="cls-1"/><path style="fill:#666666" id="path6239" d="m 153.83,91.741356 a 9.22,9.22 0 0 1 -1.08,1.23 7.65,7.65 0 0 1 -1.81,1.27 12.25,12.25 0 0 1 -2.76,1 16.37,16.37 0 0 1 -3.92,0.41 11.57,11.57 0 0 1 -4.54,-0.87 10,10 0 0 1 -3.56,-2.51 11.58,11.58 0 0 1 -2.33,-4 16.31,16.31 0 0 1 -0.83,-5.41 v -2.12 a 18.74,18.74 0 0 1 0.71,-5.4 11.22,11.22 0 0 1 2.1,-4 9,9 0 0 1 3.4,-2.52 11.63,11.63 0 0 1 4.64,-0.87 12.11,12.11 0 0 1 4.06,0.62 8.78,8.78 0 0 1 3,1.73 8.29,8.29 0 0 1 1.95,2.63 11.53,11.53 0 0 1 1,3.32 h -3.56 a 9.19,9.19 0 0 0 -0.64,-2.07 5.45,5.45 0 0 0 -1.2,-1.71 5.51,5.51 0 0 0 -1.87,-1.16 7.48,7.48 0 0 0 -2.67,-0.43 7.23,7.23 0 0 0 -3.27,0.69 6,6 0 0 0 -2.26,2 9.08,9.08 0 0 0 -1.33,3.1 17.62,17.62 0 0 0 -0.44,4.1 v 2.15 a 14.39,14.39 0 0 0 0.56,4.17 9.34,9.34 0 0 0 1.57,3.12 6.71,6.71 0 0 0 2.43,1.95 7.29,7.29 0 0 0 3.15,0.67 13.32,13.32 0 0 0 2.46,-0.19 9.06,9.06 0 0 0 1.71,-0.48 4.63,4.63 0 0 0 1.12,-0.63 7,7 0 0 0 0.71,-0.64 v -6.07 H 144 v -2.89 h 9.8 z" class="cls-1"/><path style="fill:#666666" id="path6241" d="m 181.52,95.281356 h -3.58 l -13.6,-20.82 v 20.82 h -3.58 v -27 h 3.58 l 13.66,20.9 v -20.9 h 3.54 z" class="cls-1"/><path style="fill:#666666" id="path6243" d="m 192.66,95.281356 h -3.56 v -27 h 3.56 z" class="cls-1"/><path style="fill:#666666" id="path6245" d="m 218.29,71.201356 h -8.69 v 24.08 h -3.54 v -24.08 h -8.66 v -2.92 h 20.89 z" class="cls-1"/><path style="fill:#666666" id="path6247" d="m 227.11,95.281356 h -3.56 v -27 h 3.56 z" class="cls-1"/><path style="fill:#666666" id="path6249" d="m 255.39,82.641356 a 17.83,17.83 0 0 1 -0.77,5.45 12,12 0 0 1 -2.18,4.09 9.33,9.33 0 0 1 -3.41,2.58 10.89,10.89 0 0 1 -4.47,0.89 10.71,10.71 0 0 1 -4.4,-0.89 9.66,9.66 0 0 1 -3.45,-2.58 12,12 0 0 1 -2.25,-4.09 17.24,17.24 0 0 1 -0.8,-5.45 v -1.71 a 17.35,17.35 0 0 1 0.8,-5.45 12.19,12.19 0 0 1 2.23,-4.11 9.59,9.59 0 0 1 3.43,-2.59 10.6,10.6 0 0 1 4.4,-0.9 10.85,10.85 0 0 1 4.48,0.9 9.49,9.49 0 0 1 3.43,2.59 11.93,11.93 0 0 1 2.19,4.11 18,18 0 0 1 0.77,5.45 z m -3.54,-1.74 a 16.74,16.74 0 0 0 -0.49,-4.27 9,9 0 0 0 -1.44,-3.12 6.19,6.19 0 0 0 -2.31,-1.91 7.1,7.1 0 0 0 -3.09,-0.65 6.87,6.87 0 0 0 -3,0.65 6.28,6.28 0 0 0 -2.31,1.91 9.24,9.24 0 0 0 -1.48,3.12 15.87,15.87 0 0 0 -0.52,4.27 v 1.74 a 15.68,15.68 0 0 0 0.53,4.29 9.36,9.36 0 0 0 1.49,3.13 6.32,6.32 0 0 0 2.32,1.92 6.85,6.85 0 0 0 3,0.65 7.08,7.08 0 0 0 3.1,-0.65 6.1,6.1 0 0 0 2.29,-1.92 9.06,9.06 0 0 0 1.42,-3.13 17.12,17.12 0 0 0 0.48,-4.29 z" class="cls-1"/><path style="fill:#666666" id="path6251" d="m 282.48,95.281356 h -3.58 l -13.6,-20.82 v 20.82 h -3.58 v -27 h 3.58 l 13.64,20.91 v -20.91 h 3.54 z" class="cls-1"/><path style="fill:#666666" id="path6253" d="m 304.2,88.451356 a 4.51,4.51 0 0 0 -0.29,-1.67 3.33,3.33 0 0 0 -1,-1.33 8.16,8.16 0 0 0 -2,-1.13 29.14,29.14 0 0 0 -3.15,-1.08 26.74,26.74 0 0 1 -3.63,-1.31 11.91,11.91 0 0 1 -2.76,-1.69 6.8,6.8 0 0 1 -1.75,-2.18 6.18,6.18 0 0 1 -0.62,-2.78 6.56,6.56 0 0 1 0.66,-2.92 7,7 0 0 1 1.86,-2.34 8.88,8.88 0 0 1 2.89,-1.55 12,12 0 0 1 3.77,-0.56 11.25,11.25 0 0 1 4.06,0.69 9.2,9.2 0 0 1 3,1.82 7.63,7.63 0 0 1 1.85,2.62 7.76,7.76 0 0 1 0.63,3.06 h -3.58 a 5.93,5.93 0 0 0 -0.36,-2.1 4.42,4.42 0 0 0 -1.1,-1.67 5.1,5.1 0 0 0 -1.86,-1.09 8,8 0 0 0 -2.63,-0.39 8.28,8.28 0 0 0 -2.49,0.33 5,5 0 0 0 -1.74,0.92 3.66,3.66 0 0 0 -1,1.38 4.47,4.47 0 0 0 -0.33,1.74 3.36,3.36 0 0 0 0.36,1.56 4,4 0 0 0 1.12,1.3 8.52,8.52 0 0 0 2,1.09 24.36,24.36 0 0 0 2.87,1 25.74,25.74 0 0 1 4,1.44 10.87,10.87 0 0 1 2.76,1.79 6.53,6.53 0 0 1 1.61,2.25 7.15,7.15 0 0 1 0.53,2.82 6.41,6.41 0 0 1 -2.57,5.27 9,9 0 0 1 -3,1.46 13.7,13.7 0 0 1 -3.87,0.51 13.47,13.47 0 0 1 -2.49,-0.23 12.25,12.25 0 0 1 -2.38,-0.7 10.51,10.51 0 0 1 -2.12,-1.15 8.15,8.15 0 0 1 -1.7,-1.6 7.13,7.13 0 0 1 -1.13,-2 7.27,7.27 0 0 1 -0.41,-2.49 h 3.58 a 4.67,4.67 0 0 0 2,4 6.36,6.36 0 0 0 2.12,1 10.15,10.15 0 0 0 2.51,0.31 7,7 0 0 0 4.32,-1.15 3.74,3.74 0 0 0 1.46,-3.25 z" class="cls-1"/><path style="fill:#666666" id="path6255" d="m 319.93,85.201356 h -9.05 v -2.8 h 9.05 z" class="cls-1"/><path style="fill:#666666" id="path6257" d="m 354.21,68.281356 v 18.29 a 9.34,9.34 0 0 1 -0.8,4 8.17,8.17 0 0 1 -2.14,2.84 9,9 0 0 1 -3.13,1.7 12.29,12.29 0 0 1 -3.75,0.57 12.6,12.6 0 0 1 -3.84,-0.57 8.66,8.66 0 0 1 -3.09,-1.7 7.89,7.89 0 0 1 -2.06,-2.84 9.83,9.83 0 0 1 -0.75,-4 v -18.29 h 3.53 v 18.29 a 7.47,7.47 0 0 0 0.45,2.74 5.22,5.22 0 0 0 1.27,1.93 5.1,5.1 0 0 0 2,1.14 8.14,8.14 0 0 0 2.53,0.37 8.29,8.29 0 0 0 2.56,-0.37 5,5 0 0 0 3.23,-3.07 7.62,7.62 0 0 0 0.45,-2.74 v -18.29 z" class="cls-1"/><path style="fill:#666666" id="path6259" d="M 381.59,95.281356 H 378 l -13.6,-20.82 v 20.82 h -3.58 v -27 h 3.58 l 13.6,20.9 v -20.9 h 3.54 z" class="cls-1"/><path style="fill:#666666" id="path6261" d="m 388.9,95.281356 v -27 h 7.63 a 12.79,12.79 0 0 1 4.86,0.89 10.65,10.65 0 0 1 3.76,2.54 11.47,11.47 0 0 1 2.43,4 15.3,15.3 0 0 1 0.86,5.29 v 1.6 a 15.29,15.29 0 0 1 -0.86,5.29 11.23,11.23 0 0 1 -2.45,4 10.66,10.66 0 0 1 -3.85,2.52 13.88,13.88 0 0 1 -5.07,0.88 z m 3.56,-24.08 v 21.17 h 3.75 a 9.57,9.57 0 0 0 3.79,-0.7 7.28,7.28 0 0 0 2.73,-2 8.47,8.47 0 0 0 1.64,-3.08 13.81,13.81 0 0 0 0.55,-4 v -1.65 a 14,14 0 0 0 -0.56,-4.13 8.44,8.44 0 0 0 -1.63,-3.06 7,7 0 0 0 -2.63,-1.9 9.2,9.2 0 0 0 -3.56,-0.65 z" class="cls-1"/><path style="fill:#666666" id="path6263" d="m 446,95.281356 h -3.58 l -13.6,-20.82 v 20.82 h -3.62 v -27 h 3.58 l 13.64,20.91 v -20.91 H 446 Z" class="cls-1"/><path style="fill:#666666" id="path6265" d="m 468.55,82.791356 h -11.71 v 9.57 h 13.6 v 2.92 h -17.16 v -27 h 17 v 2.93 h -13.44 v 8.68 h 11.71 z" class="cls-1"/><path style="fill:#666666" id="path6267" d="m 494.89,68.281356 v 18.29 a 9.34,9.34 0 0 1 -0.8,4 8.17,8.17 0 0 1 -2.14,2.84 9,9 0 0 1 -3.13,1.7 12.29,12.29 0 0 1 -3.75,0.57 12.6,12.6 0 0 1 -3.84,-0.57 8.66,8.66 0 0 1 -3.09,-1.7 7.89,7.89 0 0 1 -2.06,-2.84 9.83,9.83 0 0 1 -0.75,-4 v -18.29 h 3.53 v 18.29 a 7.47,7.47 0 0 0 0.45,2.74 5.22,5.22 0 0 0 1.27,1.93 5.1,5.1 0 0 0 2,1.14 8.14,8.14 0 0 0 2.53,0.37 8.29,8.29 0 0 0 2.56,-0.37 5,5 0 0 0 3.23,-3.07 7.62,7.62 0 0 0 0.45,-2.74 v -18.29 z" class="cls-1"/><path style="fill:#666666" id="path6269" d="m 511.4,84.351356 h -6.35 v 10.93 h -3.58 v -27 h 8.94 q 4.56,0 7,2.08 a 7.48,7.48 0 0 1 2.46,6 7.27,7.27 0 0 1 -1.36,4.4 8.14,8.14 0 0 1 -3.79,2.8 l 6.35,11.47 v 0.25 h -3.82 z m -6.35,-2.91 h 5.47 a 7.34,7.34 0 0 0 2.53,-0.4 5.28,5.28 0 0 0 1.81,-1.08 4.35,4.35 0 0 0 1.09,-1.6 5.35,5.35 0 0 0 0.36,-2 6.26,6.26 0 0 0 -0.31,-2.08 4.18,4.18 0 0 0 -1.07,-1.64 4.87,4.87 0 0 0 -1.84,-1.06 8.44,8.44 0 0 0 -2.65,-0.37 h -5.36 z" class="cls-1"/><path style="fill:#666666" id="path6271" d="m 546.66,82.641356 a 17.83,17.83 0 0 1 -0.77,5.45 12,12 0 0 1 -2.18,4.09 9.33,9.33 0 0 1 -3.41,2.58 10.89,10.89 0 0 1 -4.47,0.89 10.71,10.71 0 0 1 -4.4,-0.89 9.66,9.66 0 0 1 -3.43,-2.58 12,12 0 0 1 -2.25,-4.09 17.24,17.24 0 0 1 -0.8,-5.45 v -1.71 a 17.35,17.35 0 0 1 0.8,-5.45 12.19,12.19 0 0 1 2.25,-4.1 9.59,9.59 0 0 1 3.43,-2.59 10.6,10.6 0 0 1 4.4,-0.9 10.85,10.85 0 0 1 4.48,0.9 9.49,9.49 0 0 1 3.43,2.59 11.93,11.93 0 0 1 2.19,4.11 18,18 0 0 1 0.77,5.45 z m -3.54,-1.74 a 16.74,16.74 0 0 0 -0.49,-4.27 9,9 0 0 0 -1.44,-3.12 6.19,6.19 0 0 0 -2.31,-1.91 7.1,7.1 0 0 0 -3.09,-0.65 6.87,6.87 0 0 0 -3,0.65 6.28,6.28 0 0 0 -2.31,1.91 9.24,9.24 0 0 0 -1.48,3.12 15.87,15.87 0 0 0 -0.52,4.27 v 1.74 a 15.68,15.68 0 0 0 0.53,4.29 9.36,9.36 0 0 0 1.49,3.13 6.32,6.32 0 0 0 2.32,1.92 6.85,6.85 0 0 0 3,0.65 7.08,7.08 0 0 0 3.1,-0.65 6.1,6.1 0 0 0 2.29,-1.92 9.06,9.06 0 0 0 1.42,-3.13 17.12,17.12 0 0 0 0.48,-4.29 z" class="cls-1"/><path style="fill:#666666" id="path6273" d="m 558.82,86.761356 0.52,3.56 0.76,-3.21 5.35,-18.83 h 3 l 5.21,18.85 0.74,3.27 0.58,-3.64 4.2,-18.48 h 3.58 l -6.55,27 H 573 l -5.57,-19.69 -0.43,-2.06 -0.43,2.06 -5.8,19.69 h -3.25 l -6.52,-27 h 3.56 z" class="cls-1"/><path style="fill:#666666" id="path6275" d="M 591.52,95.281356 H 588 v -27 h 3.56 z" class="cls-1"/><path style="fill:#666666" id="path6277" d="m 613.42,88.451356 a 4.51,4.51 0 0 0 -0.29,-1.67 3.33,3.33 0 0 0 -1,-1.33 8.16,8.16 0 0 0 -2,-1.13 29.14,29.14 0 0 0 -3.13,-1.04 26.74,26.74 0 0 1 -3.63,-1.31 11.91,11.91 0 0 1 -2.76,-1.69 6.8,6.8 0 0 1 -1.75,-2.18 6.18,6.18 0 0 1 -0.61,-2.8 6.56,6.56 0 0 1 0.66,-2.92 7,7 0 0 1 1.86,-2.34 8.88,8.88 0 0 1 2.89,-1.55 12,12 0 0 1 3.77,-0.56 11.25,11.25 0 0 1 4.06,0.69 9.2,9.2 0 0 1 3,1.82 7.63,7.63 0 0 1 1.85,2.62 7.76,7.76 0 0 1 0.63,3.06 h -3.58 a 5.93,5.93 0 0 0 -0.36,-2.1 4.42,4.42 0 0 0 -1.1,-1.67 5.1,5.1 0 0 0 -1.86,-1.09 8,8 0 0 0 -2.63,-0.39 8.28,8.28 0 0 0 -2.49,0.33 5,5 0 0 0 -1.74,0.92 3.66,3.66 0 0 0 -1,1.38 4.47,4.47 0 0 0 -0.33,1.74 3.36,3.36 0 0 0 0.36,1.56 4,4 0 0 0 1.12,1.3 8.52,8.52 0 0 0 2,1.09 24.36,24.36 0 0 0 2.87,1 25.74,25.74 0 0 1 4,1.44 10.87,10.87 0 0 1 2.76,1.79 6.53,6.53 0 0 1 1.61,2.25 7.15,7.15 0 0 1 0.53,2.82 6.41,6.41 0 0 1 -2.57,5.27 9,9 0 0 1 -3,1.46 13.7,13.7 0 0 1 -3.87,0.51 13.47,13.47 0 0 1 -2.49,-0.23 12.25,12.25 0 0 1 -2.38,-0.7 10.51,10.51 0 0 1 -2.12,-1.15 8.15,8.15 0 0 1 -1.7,-1.6 7.13,7.13 0 0 1 -1.13,-2 7.27,7.27 0 0 1 -0.41,-2.49 h 3.58 a 4.67,4.67 0 0 0 2,4 6.36,6.36 0 0 0 2.12,1 10.15,10.15 0 0 0 2.51,0.31 7,7 0 0 0 4.32,-1.15 3.74,3.74 0 0 0 1.43,-3.27 z" class="cls-1"/><path style="fill:#666666" id="path6279" d="m 637,88.451356 a 4.5,4.5 0 0 0 -0.29,-1.67 3.32,3.32 0 0 0 -1,-1.33 8.18,8.18 0 0 0 -2,-1.13 29.18,29.18 0 0 0 -3.15,-1.08 26.73,26.73 0 0 1 -3.63,-1.31 11.93,11.93 0 0 1 -2.77,-1.69 6.82,6.82 0 0 1 -1.75,-2.18 6.18,6.18 0 0 1 -0.61,-2.8 6.56,6.56 0 0 1 0.66,-2.92 7,7 0 0 1 1.86,-2.34 8.88,8.88 0 0 1 2.89,-1.55 12,12 0 0 1 3.77,-0.56 11.25,11.25 0 0 1 4.06,0.69 9.2,9.2 0 0 1 3,1.82 7.62,7.62 0 0 1 1.85,2.62 7.75,7.75 0 0 1 0.63,3.06 h -3.58 a 6,6 0 0 0 -0.36,-2.1 4.43,4.43 0 0 0 -1.1,-1.67 5.1,5.1 0 0 0 -1.86,-1.09 8,8 0 0 0 -2.63,-0.39 8.29,8.29 0 0 0 -2.49,0.33 5,5 0 0 0 -1.74,0.92 3.66,3.66 0 0 0 -1,1.38 4.47,4.47 0 0 0 -0.33,1.74 3.37,3.37 0 0 0 0.36,1.56 4,4 0 0 0 1.12,1.3 8.54,8.54 0 0 0 2,1.09 24.43,24.43 0 0 0 2.87,1 25.76,25.76 0 0 1 4,1.44 10.89,10.89 0 0 1 2.76,1.79 6.52,6.52 0 0 1 1.61,2.25 7.13,7.13 0 0 1 0.53,2.82 6.41,6.41 0 0 1 -2.68,5.23 9,9 0 0 1 -3,1.46 13.69,13.69 0 0 1 -3.87,0.51 13.47,13.47 0 0 1 -2.49,-0.23 12.23,12.23 0 0 1 -2.38,-0.7 10.46,10.46 0 0 1 -2.12,-1.15 8.13,8.13 0 0 1 -1.7,-1.6 7.13,7.13 0 0 1 -1.13,-2 7.27,7.27 0 0 1 -0.41,-2.49 h 3.58 a 4.67,4.67 0 0 0 2,4 6.38,6.38 0 0 0 2.12,1 10.17,10.17 0 0 0 2.51,0.31 7,7 0 0 0 4.32,-1.15 3.74,3.74 0 0 0 1.57,-3.19 z" class="cls-1"/><path style="fill:#666666" id="path6281" d="m 661.35,82.791356 h -11.7 v 9.57 h 13.6 v 2.92 h -17.17 v -27 h 17 v 2.93 h -13.43 v 8.68 h 11.71 z" class="cls-1"/><path style="fill:#666666" id="path6283" d="m 689.43,95.281356 h -3.58 l -13.6,-20.82 v 20.82 h -3.58 v -27 h 3.58 l 13.64,20.91 v -20.91 h 3.54 z" class="cls-1"/><path style="fill:#666666" id="path6285" d="m 711.15,88.451356 a 4.49,4.49 0 0 0 -0.29,-1.67 3.32,3.32 0 0 0 -1,-1.33 8.18,8.18 0 0 0 -2,-1.13 29.18,29.18 0 0 0 -3.15,-1.08 26.73,26.73 0 0 1 -3.63,-1.31 11.93,11.93 0 0 1 -2.77,-1.69 6.82,6.82 0 0 1 -1.75,-2.18 6.18,6.18 0 0 1 -0.61,-2.8 6.57,6.57 0 0 1 0.66,-2.92 7,7 0 0 1 1.87,-2.34 8.88,8.88 0 0 1 2.89,-1.55 12,12 0 0 1 3.77,-0.56 11.25,11.25 0 0 1 4.06,0.69 9.19,9.19 0 0 1 3,1.82 7.62,7.62 0 0 1 1.85,2.62 7.77,7.77 0 0 1 0.63,3.06 h -3.58 a 6,6 0 0 0 -0.36,-2.1 4.44,4.44 0 0 0 -1.1,-1.67 5.1,5.1 0 0 0 -1.86,-1.09 8,8 0 0 0 -2.63,-0.39 8.28,8.28 0 0 0 -2.49,0.33 5,5 0 0 0 -1.74,0.92 3.66,3.66 0 0 0 -1,1.38 4.47,4.47 0 0 0 -0.33,1.74 3.37,3.37 0 0 0 0.36,1.56 4,4 0 0 0 1.12,1.3 8.54,8.54 0 0 0 2,1.09 24.43,24.43 0 0 0 2.87,1 25.76,25.76 0 0 1 4,1.44 10.89,10.89 0 0 1 2.76,1.79 6.52,6.52 0 0 1 1.61,2.25 7.13,7.13 0 0 1 0.53,2.82 6.41,6.41 0 0 1 -2.57,5.27 9,9 0 0 1 -3,1.46 13.7,13.7 0 0 1 -3.87,0.51 13.47,13.47 0 0 1 -2.49,-0.23 12.23,12.23 0 0 1 -2.38,-0.7 10.46,10.46 0 0 1 -2.12,-1.15 8.13,8.13 0 0 1 -1.7,-1.6 7.11,7.11 0 0 1 -1.13,-2 7.27,7.27 0 0 1 -0.41,-2.49 h 3.58 a 4.67,4.67 0 0 0 2,4 6.38,6.38 0 0 0 2.12,1 10.16,10.16 0 0 0 2.51,0.31 7,7 0 0 0 4.32,-1.15 3.74,3.74 0 0 0 1.45,-3.23 z" class="cls-1"/><path style="fill:#666666" id="path6287" d="m 740.15,86.711356 a 12.45,12.45 0 0 1 -0.94,3.55 8.59,8.59 0 0 1 -2,2.84 9,9 0 0 1 -3.08,1.87 12.14,12.14 0 0 1 -4.25,0.68 10.32,10.32 0 0 1 -4.34,-0.89 9.41,9.41 0 0 1 -3.33,-2.53 11.67,11.67 0 0 1 -2.11,-3.95 16.53,16.53 0 0 1 -0.75,-5.14 v -2.71 a 16.37,16.37 0 0 1 0.76,-5.15 11.51,11.51 0 0 1 2.17,-4 9.63,9.63 0 0 1 3.42,-2.54 11,11 0 0 1 4.52,-0.9 11.37,11.37 0 0 1 4,0.67 8.64,8.64 0 0 1 3,1.87 8.85,8.85 0 0 1 2,2.86 12.23,12.23 0 0 1 0.93,3.66 h -3.58 a 12.2,12.2 0 0 0 -0.63,-2.54 5.72,5.72 0 0 0 -1.18,-1.93 5,5 0 0 0 -1.86,-1.22 7.48,7.48 0 0 0 -2.67,-0.43 6.88,6.88 0 0 0 -3.16,0.7 6.41,6.41 0 0 0 -2.28,1.95 8.84,8.84 0 0 0 -1.38,3 15.4,15.4 0 0 0 -0.46,3.91 v 2.75 a 15.93,15.93 0 0 0 0.42,3.73 9.6,9.6 0 0 0 1.27,3.05 6.27,6.27 0 0 0 2.17,2.06 6.2,6.2 0 0 0 3.12,0.75 8.79,8.79 0 0 0 2.88,-0.41 5,5 0 0 0 1.94,-1.18 5.29,5.29 0 0 0 1.2,-1.89 12.69,12.69 0 0 0 0.65,-2.55 z" class="cls-1"/><path style="fill:#666666" id="path6289" d="m 766.76,95.281356 h -3.58 v -12.49 h -13.62 v 12.49 H 746 v -27 h 3.56 v 11.6 h 13.62 v -11.6 h 3.58 z" class="cls-1"/><path style="fill:#666666" id="path6291" d="M 789.33,88.231356 H 778 l -2.54,7.05 h -3.67 l 10.32,-27 h 3.12 l 10.33,27 h -3.66 z m -10.24,-2.95 h 9.18 l -4.6,-12.64 z" class="cls-1"/><path style="fill:#666666" id="path6293" d="m 815.09,83.351356 h -11.34 v 11.93 h -3.56 v -27 h 16.74 v 2.93 h -13.17 v 9.24 h 11.34 z" class="cls-1"/><path style="fill:#666666" id="path6295" d="m 841.22,71.201356 h -8.68 v 24.08 H 829 v -24.08 h -8.67 v -2.92 h 20.89 z" class="cls-1"/><path style="fill:#666666" id="path6297" d="m 861.48,82.791356 h -11.71 v 9.57 h 13.6 v 2.92 h -17.16 v -27 h 17 v 2.93 h -13.42 v 8.68 h 11.71 z" class="cls-1"/><path style="fill:#666666" id="path6299" d="M 889.56,95.281356 H 886 l -13.6,-20.82 v 20.82 h -3.58 v -27 h 3.58 l 13.6,20.9 v -20.9 h 3.54 z" class="cls-1"/><rect style="fill:#009dd4" id="rect6385" height="10" width="212" y="120.28136" x="0" class="cls-3"/><rect style="fill:#008c57" id="rect6387" height="10" width="212" y="120.28136" x="226" class="cls-4"/><rect style="fill:#1f5413" id="rect6389" height="10" width="212" y="120.28136" x="452" class="cls-5"/><rect style="fill:#13b3b0" id="rect6391" height="10" width="212" y="120.28136" x="678" class="cls-6"/></g></svg>