<svg xmlns="http://www.w3.org/2000/svg" version="1.1" width="118.000mm" height="118.000mm" viewBox="-59.000 -59.000 118.000 118.000">
    <style />
    <desc>Spirograph from file: techdraw/spirograph/samples/1.spiro</desc>
    <g transform="scale(1, -1)">
        <path d="M 0.000 44.100 L 0.125 44.077 L 0.248 44.010 L 0.367 43.897 L 0.480 43.741 L 0.584 43.540 L 0.678 43.295 L 0.759 43.008 L 0.825 42.679 L 0.875 42.310 L 0.907 41.900 L 0.919 41.452 L 0.909 40.967 L 0.875 40.447 L 0.817 39.892 L 0.733 39.304 L 0.620 38.686 L 0.479 38.039 L 0.307 37.365 L 0.105 36.666 L -0.130 35.943 L -0.397 35.200 L -0.698 34.438 L -1.032 33.660 L -1.401 32.867 L -1.805 32.062 L -2.243 31.247 L -2.716 30.425 L -3.224 29.598 L -3.766 28.767 L -4.342 27.936 L -4.951 27.107 L -5.593 26.281 L -6.267 25.461 L -6.972 24.650 L -7.707 23.848 L -8.470 23.059 L -9.262 22.285 L -10.079 21.526 L -10.921 20.786 L -11.786 20.065 L -12.672 19.365 L -13.578 18.688 L -14.501 18.036 L -15.441 17.409 L -16.393 16.809 L -17.358 16.238 L -18.332 15.695 L -19.313 15.182 L -20.300 14.699 L -21.289 14.248 L -22.278 13.828 L -23.266 13.441 L -24.250 13.085 L -25.227 12.762 L -26.195 12.471 L -27.153 12.212 L -28.097 11.985 L -29.025 11.789 L -29.935 11.624 L -30.825 11.489 L -31.693 11.383 L -32.537 11.305 L -33.355 11.255 L -34.144 11.230 L -34.903 11.231 L -35.631 11.254 L -36.325 11.299 L -36.984 11.365 L -37.607 11.449 L -38.192 11.550 L -38.737 11.666 L -39.243 11.795 L -39.707 11.936 L -40.130 12.085 L -40.509 12.242 L -40.845 12.404 L -41.138 12.569 L -41.386 12.735 L -41.589 12.899 L -41.748 13.060 L -41.862 13.216 L -41.933 13.363 L -41.959 13.502 L -41.942 13.628 L -41.881 13.740 L -41.779 13.836 L -41.635 13.914 L -41.451 13.973 L -41.228 14.010 L -40.967 14.023 L -40.669 14.012 L -40.335 13.973 L -39.968 13.907 L -39.569 13.811 L -39.140 13.683 L -38.681 13.524 L -38.196 13.331 L -37.687 13.104 L -37.154 12.842 L -36.601 12.544 L -36.029 12.210 L -35.441 11.839 L -34.839 11.430 L -34.224 10.984 L -33.600 10.500 L -32.968 9.979 L -32.331 9.420 L -31.691 8.824 L -31.051 8.191 L -30.411 7.523 L -29.775 6.819 L -29.145 6.080 L -28.523 5.308 L -27.910 4.503 L -27.310 3.668 L -26.723 2.802 L -26.152 1.908 L -25.598 0.987 L -25.063 0.040 L -24.548 -0.930 L -24.056 -1.922 L -23.587 -2.934 L -23.143 -3.963 L -22.725 -5.009 L -22.333 -6.068 L -21.969 -7.138 L -21.634 -8.218 L -21.329 -9.305 L -21.053 -10.397 L -20.807 -11.491 L -20.591 -12.585 L -20.407 -13.677 L -20.253 -14.764 L -20.129 -15.844 L -20.036 -16.915 L -19.972 -17.974 L -19.938 -19.020 L -19.933 -20.049 L -19.956 -21.060 L -20.005 -22.050 L -20.081 -23.018 L -20.181 -23.961 L -20.306 -24.878 L -20.452 -25.766 L -20.620 -26.625 L -20.807 -27.451 L -21.011 -28.244 L -21.232 -29.003 L -21.467 -29.725 L -21.714 -30.409 L -21.971 -31.056 L -22.237 -31.662 L -22.510 -32.228 L -22.787 -32.753 L -23.066 -33.237 L -23.345 -33.677 L -23.622 -34.076 L -23.895 -34.431 L -24.161 -34.744 L -24.419 -35.013 L -24.666 -35.240 L -24.900 -35.425 L -25.119 -35.568 L -25.322 -35.669 L -25.505 -35.730 L -25.667 -35.751 L -25.807 -35.733 L -25.921 -35.678 L -26.009 -35.586 L -26.069 -35.459 L -26.099 -35.298 L -26.098 -35.105 L -26.064 -34.881 L -25.996 -34.628 L -25.893 -34.348 L -25.754 -34.043 L -25.577 -33.715 L -25.362 -33.365 L -25.108 -32.996 L -24.815 -32.609 L -24.482 -32.207 L -24.109 -31.793 L -23.695 -31.367 L -23.241 -30.933 L -22.746 -30.493 L -22.211 -30.048 L -21.636 -29.601 L -21.022 -29.155 L -20.369 -28.711 L -19.678 -28.271 L -18.950 -27.838 L -18.185 -27.414 L -17.385 -27.000 L -16.552 -26.598 L -15.686 -26.211 L -14.789 -25.840 L -13.862 -25.487 L -12.908 -25.153 L -11.927 -24.840 L -10.923 -24.549 L -9.896 -24.282 L -8.848 -24.040 L -7.783 -23.824 L -6.701 -23.634 L -5.606 -23.473 L -4.499 -23.339 L -3.382 -23.235 L -2.259 -23.160 L -1.131 -23.115 L 0.000 -23.100 L 1.131 -23.115 L 2.259 -23.160 L 3.382 -23.235 L 4.499 -23.339 L 5.606 -23.473 L 6.701 -23.634 L 7.783 -23.824 L 8.848 -24.040 L 9.896 -24.282 L 10.923 -24.549 L 11.927 -24.840 L 12.908 -25.153 L 13.862 -25.487 L 14.789 -25.840 L 15.686 -26.211 L 16.552 -26.598 L 17.385 -27.000 L 18.185 -27.414 L 18.950 -27.838 L 19.678 -28.271 L 20.369 -28.711 L 21.022 -29.155 L 21.636 -29.601 L 22.211 -30.048 L 22.746 -30.493 L 23.241 -30.933 L 23.695 -31.367 L 24.109 -31.793 L 24.482 -32.207 L 24.815 -32.609 L 25.108 -32.996 L 25.362 -33.365 L 25.577 -33.715 L 25.754 -34.043 L 25.893 -34.348 L 25.996 -34.628 L 26.064 -34.881 L 26.098 -35.105 L 26.099 -35.298 L 26.069 -35.459 L 26.009 -35.586 L 25.921 -35.678 L 25.807 -35.733 L 25.667 -35.751 L 25.505 -35.730 L 25.322 -35.669 L 25.119 -35.568 L 24.900 -35.425 L 24.666 -35.240 L 24.419 -35.013 L 24.161 -34.744 L 23.895 -34.431 L 23.622 -34.076 L 23.345 -33.677 L 23.066 -33.237 L 22.787 -32.753 L 22.510 -32.228 L 22.237 -31.662 L 21.971 -31.056 L 21.714 -30.409 L 21.467 -29.725 L 21.232 -29.003 L 21.011 -28.244 L 20.807 -27.451 L 20.620 -26.625 L 20.452 -25.766 L 20.306 -24.878 L 20.181 -23.961 L 20.081 -23.018 L 20.005 -22.050 L 19.956 -21.060 L 19.933 -20.049 L 19.938 -19.020 L 19.972 -17.974 L 20.036 -16.915 L 20.129 -15.844 L 20.253 -14.764 L 20.407 -13.677 L 20.591 -12.585 L 20.807 -11.491 L 21.053 -10.397 L 21.329 -9.305 L 21.634 -8.218 L 21.969 -7.138 L 22.333 -6.068 L 22.725 -5.009 L 23.143 -3.963 L 23.587 -2.934 L 24.056 -1.922 L 24.548 -0.930 L 25.063 0.040 L 25.598 0.987 L 26.152 1.908 L 26.723 2.802 L 27.310 3.668 L 27.910 4.503 L 28.523 5.308 L 29.145 6.080 L 29.775 6.819 L 30.411 7.523 L 31.051 8.191 L 31.691 8.824 L 32.331 9.420 L 32.968 9.979 L 33.600 10.500 L 34.224 10.984 L 34.839 11.430 L 35.441 11.839 L 36.029 12.210 L 36.601 12.544 L 37.154 12.842 L 37.687 13.104 L 38.196 13.331 L 38.681 13.524 L 39.140 13.683 L 39.569 13.811 L 39.968 13.907 L 40.335 13.973 L 40.669 14.012 L 40.967 14.023 L 41.228 14.010 L 41.451 13.973 L 41.635 13.914 L 41.779 13.836 L 41.881 13.740 L 41.942 13.628 L 41.959 13.502 L 41.933 13.363 L 41.862 13.216 L 41.748 13.060 L 41.589 12.899 L 41.386 12.735 L 41.138 12.569 L 40.845 12.404 L 40.509 12.242 L 40.130 12.085 L 39.707 11.936 L 39.243 11.795 L 38.737 11.666 L 38.192 11.550 L 37.607 11.449 L 36.984 11.365 L 36.325 11.299 L 35.631 11.254 L 34.903 11.231 L 34.144 11.230 L 33.355 11.255 L 32.537 11.305 L 31.693 11.383 L 30.825 11.489 L 29.935 11.624 L 29.025 11.789 L 28.097 11.985 L 27.153 12.212 L 26.195 12.471 L 25.227 12.762 L 24.250 13.085 L 23.266 13.441 L 22.278 13.828 L 21.289 14.248 L 20.300 14.699 L 19.313 15.182 L 18.332 15.695 L 17.358 16.238 L 16.393 16.809 L 15.441 17.409 L 14.501 18.036 L 13.578 18.688 L 12.672 19.365 L 11.786 20.065 L 10.921 20.786 L 10.079 21.526 L 9.262 22.285 L 8.470 23.059 L 7.707 23.848 L 6.972 24.650 L 6.267 25.461 L 5.593 26.281 L 4.951 27.107 L 4.342 27.936 L 3.766 28.767 L 3.224 29.598 L 2.716 30.425 L 2.243 31.247 L 1.805 32.062 L 1.401 32.867 L 1.032 33.660 L 0.698 34.438 L 0.397 35.200 L 0.130 35.943 L -0.105 36.666 L -0.307 37.365 L -0.479 38.039 L -0.620 38.686 L -0.733 39.304 L -0.817 39.892 L -0.875 40.447 L -0.909 40.967 L -0.919 41.452 L -0.907 41.900 L -0.875 42.310 L -0.825 42.679 L -0.759 43.008 L -0.678 43.295 L -0.584 43.540 L -0.480 43.741 L -0.367 43.897 L -0.248 44.010 L -0.125 44.077 Z" fill="none" stroke="blue" stroke-width="0.5" stroke-linecap="round" />
        <path d="M 21.824 23.100 L 22.261 23.406 L 22.691 23.672 L 23.111 23.898 L 23.521 24.083 L 23.916 24.229 L 24.296 24.336 L 24.658 24.404 L 25.000 24.435 L 25.320 24.429 L 25.617 24.387 L 25.888 24.311 L 26.132 24.202 L 26.346 24.060 L 26.530 23.888 L 26.682 23.687 L 26.800 23.459 L 26.884 23.205 L 26.932 22.927 L 26.942 22.628 L 26.915 22.309 L 26.848 21.972 L 26.742 21.619 L 26.596 21.252 L 26.410 20.874 L 26.183 20.487 L 25.914 20.092 L 25.605 19.692 L 25.255 19.290 L 24.864 18.886 L 24.432 18.485 L 23.961 18.087 L 23.451 17.695 L 22.902 17.310 L 22.316 16.936 L 21.693 16.574 L 21.035 16.225 L 20.343 15.893 L 19.618 15.578 L 18.862 15.282 L 18.076 15.007 L 17.262 14.755 L 16.422 14.527 L 15.557 14.324 L 14.670 14.147 L 13.762 13.998 L 12.837 13.877 L 11.894 13.787 L 10.938 13.726 L 9.970 13.696 L 8.993 13.698 L 8.008 13.731 L 7.018 13.797 L 6.026 13.894 L 5.033 14.024 L 4.043 14.185 L 3.056 14.379 L 2.077 14.603 L 1.106 14.859 L 0.146 15.144 L -0.800 15.458 L -1.731 15.801 L -2.644 16.171 L -3.538 16.567 L -4.410 16.988 L -5.259 17.432 L -6.082 17.899 L -6.879 18.385 L -7.648 18.891 L -8.386 19.413 L -9.093 19.950 L -9.768 20.500 L -10.409 21.062 L -11.015 21.633 L -11.586 22.210 L -12.120 22.793 L -12.617 23.378 L -13.077 23.964 L -13.498 24.549 L -13.882 25.129 L -14.227 25.703 L -14.533 26.269 L -14.802 26.824 L -15.032 27.367 L -15.225 27.894 L -15.382 28.404 L -15.502 28.895 L -15.586 29.365 L -15.636 29.812 L -15.653 30.233 L -15.637 30.627 L -15.590 30.992 L -15.514 31.327 L -15.409 31.630 L -15.278 31.899 L -15.121 32.134 L -14.942 32.331 L -14.741 32.492 L -14.520 32.614 L -14.282 32.696 L -14.029 32.738 L -13.762 32.739 L -13.483 32.698 L -13.195 32.616 L -12.900 32.491 L -12.600 32.324 L -12.297 32.114 L -11.994 31.862 L -11.692 31.568 L -11.393 31.232 L -11.101 30.855 L -10.816 30.437 L -10.541 29.979 L -10.279 29.483 L -10.030 28.949 L -9.797 28.378 L -9.582 27.771 L -9.386 27.131 L -9.211 26.457 L -9.059 25.753 L -8.931 25.020 L -8.829 24.258 L -8.753 23.472 L -8.706 22.661 L -8.687 21.829 L -8.699 20.976 L -8.741 20.107 L -8.815 19.222 L -8.921 18.323 L -9.060 17.414 L -9.232 16.497 L -9.436 15.573 L -9.674 14.644 L -9.945 13.715 L -10.248 12.785 L -10.584 11.859 L -10.953 10.938 L -11.352 10.024 L -11.782 9.120 L -12.242 8.228 L -12.731 7.350 L -13.247 6.488 L -13.790 5.643 L -14.357 4.819 L -14.949 4.016 L -15.563 3.237 L -16.197 2.483 L -16.850 1.755 L -17.519 1.056 L -18.204 0.386 L -18.902 -0.254 L -19.611 -0.861 L -20.329 -1.436 L -21.054 -1.977 L -21.784 -2.483 L -22.515 -2.955 L -23.248 -3.391 L -23.978 -3.791 L -24.704 -4.155 L -25.423 -4.483 L -26.133 -4.775 L -26.832 -5.031 L -27.518 -5.252 L -28.189 -5.437 L -28.841 -5.587 L -29.474 -5.704 L -30.085 -5.788 L -30.672 -5.840 L -31.234 -5.861 L -31.767 -5.851 L -32.271 -5.814 L -32.744 -5.749 L -33.184 -5.659 L -33.590 -5.544 L -33.960 -5.407 L -34.293 -5.250 L -34.588 -5.074 L -34.844 -4.881 L -35.059 -4.673 L -35.234 -4.452 L -35.366 -4.220 L -35.457 -3.979 L -35.504 -3.732 L -35.509 -3.480 L -35.471 -3.226 L -35.389 -2.971 L -35.265 -2.719 L -35.097 -2.470 L -34.887 -2.228 L -34.635 -1.995 L -34.342 -1.771 L -34.009 -1.561 L -33.636 -1.364 L -33.224 -1.184 L -32.775 -1.023 L -32.290 -0.881 L -31.770 -0.761 L -31.216 -0.665 L -30.631 -0.593 L -30.016 -0.548 L -29.373 -0.531 L -28.703 -0.543 L -28.009 -0.585 L -27.292 -0.658 L -26.555 -0.763 L -25.799 -0.900 L -25.028 -1.072 L -24.242 -1.277 L -23.445 -1.517 L -22.638 -1.791 L -21.824 -2.100 L -21.005 -2.444 L -20.183 -2.822 L -19.362 -3.235 L -18.542 -3.682 L -17.726 -4.162 L -16.917 -4.675 L -16.116 -5.220 L -15.327 -5.796 L -14.550 -6.402 L -13.787 -7.036 L -13.042 -7.699 L -12.315 -8.387 L -11.609 -9.100 L -10.924 -9.836 L -10.264 -10.594 L -9.628 -11.371 L -9.020 -12.166 L -8.439 -12.976 L -7.888 -13.801 L -7.366 -14.637 L -6.876 -15.483 L -6.418 -16.336 L -5.992 -17.194 L -5.600 -18.055 L -5.241 -18.917 L -4.917 -19.778 L -4.626 -20.634 L -4.370 -21.485 L -4.147 -22.327 L -3.959 -23.158 L -3.804 -23.976 L -3.682 -24.779 L -3.592 -25.564 L -3.534 -26.330 L -3.507 -27.074 L -3.509 -27.794 L -3.540 -28.489 L -3.598 -29.156 L -3.683 -29.794 L -3.792 -30.401 L -3.924 -30.976 L -4.078 -31.516 L -4.252 -32.021 L -4.443 -32.488 L -4.651 -32.918 L -4.873 -33.309 L -5.107 -33.659 L -5.351 -33.969 L -5.604 -34.237 L -5.863 -34.463 L -6.126 -34.647 L -6.390 -34.787 L -6.654 -34.885 L -6.916 -34.939 L -7.172 -34.951 L -7.422 -34.920 L -7.663 -34.847 L -7.893 -34.731 L -8.110 -34.575 L -8.312 -34.379 L -8.496 -34.143 L -8.661 -33.868 L -8.806 -33.557 L -8.928 -33.209 L -9.025 -32.827 L -9.096 -32.411 L -9.140 -31.964 L -9.155 -31.487 L -9.140 -30.982 L -9.093 -30.450 L -9.014 -29.894 L -8.901 -29.315 L -8.754 -28.717 L -8.572 -28.099 L -8.354 -27.466 L -8.099 -26.819 L -7.808 -26.160 L -7.481 -25.491 L -7.116 -24.815 L -6.715 -24.134 L -6.277 -23.450 L -5.802 -22.766 L -5.292 -22.083 L -4.747 -21.405 L -4.167 -20.732 L -3.553 -20.068 L -2.906 -19.414 L -2.228 -18.772 L -1.519 -18.145 L -0.781 -17.534 L -0.016 -16.941 L 0.776 -16.368 L 1.592 -15.816 L 2.432 -15.287 L 3.292 -14.783 L 4.171 -14.304 L 5.067 -13.852 L 5.979 -13.429 L 6.904 -13.035 L 7.839 -12.671 L 8.783 -12.338 L 9.733 -12.036 L 10.688 -11.766 L 11.644 -11.529 L 12.600 -11.324 L 13.553 -11.152 L 14.501 -11.012 L 15.441 -10.905 L 16.372 -10.831 L 17.291 -10.788 L 18.195 -10.776 L 19.083 -10.795 L 19.952 -10.844 L 20.801 -10.921 L 21.627 -11.027 L 22.428 -11.159 L 23.203 -11.316 L 23.949 -11.497 L 24.665 -11.701 L 25.350 -11.926 L 26.001 -12.170 L 26.617 -12.432 L 27.198 -12.710 L 27.742 -13.001 L 28.247 -13.304 L 28.713 -13.617 L 29.140 -13.938 L 29.525 -14.265 L 29.870 -14.595 L 30.173 -14.927 L 30.434 -15.258 L 30.653 -15.587 L 30.830 -15.910 L 30.965 -16.226 L 31.058 -16.532 L 31.110 -16.827 L 31.121 -17.108 L 31.092 -17.374 L 31.024 -17.622 L 30.917 -17.850 L 30.773 -18.057 L 30.592 -18.240 L 30.377 -18.397 L 30.128 -18.528 L 29.846 -18.631 L 29.534 -18.703 L 29.193 -18.744 L 28.825 -18.753 L 28.431 -18.727 L 28.014 -18.667 L 27.575 -18.570 L 27.117 -18.437 L 26.641 -18.266 L 26.150 -18.058 L 25.645 -17.811 L 25.130 -17.525 L 24.606 -17.199 L 24.075 -16.835 L 23.540 -16.432 L 23.003 -15.990 L 22.466 -15.510 L 21.932 -14.992 L 21.401 -14.436 L 20.878 -13.844 L 20.363 -13.216 L 19.859 -12.553 L 19.367 -11.857 L 18.890 -11.129 L 18.430 -10.369 L 17.988 -9.580 L 17.566 -8.763 L 17.165 -7.920 L 16.787 -7.052 L 16.434 -6.161 L 16.107 -5.250 L 15.806 -4.320 L 15.534 -3.373 L 15.290 -2.411 L 15.076 -1.437 L 14.893 -0.453 L 14.740 0.539 L 14.619 1.537 L 14.530 2.538 L 14.473 3.540 L 14.448 4.541 L 14.455 5.538 L 14.493 6.529 L 14.563 7.512 L 14.663 8.484 L 14.794 9.444 L 14.954 10.388 L 15.143 11.316 L 15.360 12.224 L 15.603 13.111 L 15.871 13.974 L 16.164 14.813 L 16.479 15.625 L 16.815 16.408 L 17.170 17.161 L 17.543 17.882 L 17.932 18.570 L 18.335 19.224 L 18.751 19.842 L 19.176 20.423 L 19.609 20.967 L 20.049 21.473 L 20.492 21.939 L 20.937 22.366 L 21.382 22.753 Z" fill="none" stroke="green" stroke-width="1" stroke-linecap="round" />
        <path d="M 16.800 39.598 L 16.896 39.719 L 16.991 39.828 L 17.084 39.926 L 17.176 40.013 L 17.265 40.089 L 17.352 40.154 L 17.437 40.208 L 17.519 40.252 L 17.598 40.284 L 17.673 40.306 L 17.745 40.317 L 17.813 40.318 L 17.877 40.308 L 17.937 40.287 L 17.992 40.257 L 18.042 40.216 L 18.088 40.165 L 18.127 40.104 L 18.162 40.033 L 18.190 39.953 L 18.213 39.863 L 18.229 39.764 L 18.239 39.655 L 18.243 39.538 L 18.239 39.412 L 18.229 39.277 L 18.211 39.133 L 18.186 38.981 L 18.153 38.822 L 18.113 38.654 L 18.065 38.479 L 18.008 38.296 L 17.944 38.106 L 17.871 37.909 L 17.790 37.705 L 17.700 37.495 L 17.601 37.278 L 17.493 37.056 L 17.377 36.827 L 17.251 36.594 L 17.116 36.355 L 16.972 36.110 L 16.818 35.862 L 16.656 35.608 L 16.483 35.351 L 16.302 35.089 L 16.110 34.824 L 15.909 34.556 L 15.699 34.284 L 15.478 34.009 L 15.249 33.732 L 15.009 33.453 L 14.760 33.172 L 14.501 32.889 L 14.233 32.604 L 13.955 32.318 L 13.667 32.032 L 13.370 31.745 L 13.064 31.457 L 12.748 31.170 L 12.423 30.882 L 12.088 30.595 L 11.745 30.309 L 11.392 30.024 L 11.031 29.740 L 10.660 29.458 L 10.281 29.178 L 9.894 28.899 L 9.498 28.623 L 9.093 28.350 L 8.681 28.079 L 8.260 27.812 L 7.832 27.548 L 7.396 27.287 L 6.953 27.030 L 6.502 26.777 L 6.045 26.528 L 5.580 26.284 L 5.109 26.044 L 4.631 25.809 L 4.147 25.579 L 3.657 25.354 L 3.161 25.135 L 2.660 24.921 L 2.153 24.713 L 1.641 24.511 L 1.124 24.315 L 0.603 24.125 L 0.078 23.942 L -0.452 23.765 L -0.985 23.594 L -1.522 23.430 L -2.063 23.274 L -2.606 23.124 L -3.152 22.981 L -3.700 22.845 L -4.250 22.716 L -4.803 22.595 L -5.357 22.481 L -5.912 22.375 L -6.468 22.276 L -7.025 22.184 L -7.582 22.100 L -8.139 22.024 L -8.696 21.955 L -9.253 21.894 L -9.809 21.840 L -10.364 21.794 L -10.917 21.756 L -11.469 21.725 L -12.019 21.701 L -12.566 21.685 L -13.111 21.676 L -13.653 21.675 L -14.192 21.681 L -14.728 21.694 L -15.260 21.714 L -15.788 21.742 L -16.312 21.776 L -16.831 21.817 L -17.346 21.865 L -17.855 21.919 L -18.360 21.980 L -18.858 22.048 L -19.351 22.121 L -19.838 22.200 L -20.319 22.286 L -20.793 22.377 L -21.260 22.474 L -21.720 22.576 L -22.173 22.683 L -22.619 22.795 L -23.057 22.912 L -23.487 23.034 L -23.909 23.160 L -24.323 23.290 L -24.729 23.424 L -25.126 23.562 L -25.514 23.704 L -25.893 23.848 L -26.263 23.996 L -26.624 24.147 L -26.976 24.300 L -27.318 24.456 L -27.650 24.614 L -27.973 24.773 L -28.286 24.935 L -28.589 25.097 L -28.882 25.261 L -29.164 25.425 L -29.437 25.590 L -29.699 25.755 L -29.951 25.920 L -30.192 26.085 L -30.423 26.250 L -30.643 26.413 L -30.853 26.576 L -31.053 26.737 L -31.242 26.897 L -31.420 27.054 L -31.588 27.210 L -31.745 27.363 L -31.892 27.513 L -32.028 27.660 L -32.154 27.804 L -32.269 27.945 L -32.374 28.082 L -32.469 28.214 L -32.553 28.343 L -32.628 28.467 L -32.692 28.586 L -32.747 28.700 L -32.792 28.808 L -32.827 28.911 L -32.852 29.009 L -32.868 29.100 L -32.875 29.185 L -32.872 29.264 L -32.860 29.336 L -32.840 29.400 L -32.811 29.458 L -32.773 29.509 L -32.726 29.552 L -32.672 29.587 L -32.610 29.614 L -32.539 29.633 L -32.462 29.644 L -32.376 29.646 L -32.284 29.640 L -32.184 29.625 L -32.078 29.601 L -31.965 29.568 L -31.846 29.525 L -31.721 29.474 L -31.590 29.413 L -31.454 29.342 L -31.312 29.261 L -31.165 29.171 L -31.013 29.071 L -30.857 28.961 L -30.696 28.841 L -30.531 28.711 L -30.362 28.570 L -30.190 28.420 L -30.015 28.259 L -29.836 28.088 L -29.655 27.906 L -29.472 27.715 L -29.286 27.512 L -29.098 27.300 L -28.909 27.077 L -28.719 26.844 L -28.527 26.601 L -28.334 26.347 L -28.141 26.083 L -27.948 25.809 L -27.755 25.525 L -27.562 25.230 L -27.369 24.926 L -27.178 24.612 L -26.987 24.288 L -26.798 23.954 L -26.610 23.611 L -26.424 23.259 L -26.241 22.897 L -26.059 22.525 L -25.881 22.145 L -25.705 21.756 L -25.532 21.358 L -25.362 20.951 L -25.197 20.536 L -25.034 20.112 L -24.876 19.681 L -24.722 19.242 L -24.573 18.794 L -24.428 18.340 L -24.288 17.878 L -24.152 17.409 L -24.023 16.933 L -23.898 16.450 L -23.779 15.961 L -23.666 15.466 L -23.558 14.965 L -23.457 14.459 L -23.362 13.946 L -23.273 13.429 L -23.191 12.907 L -23.115 12.380 L -23.046 11.848 L -22.983 11.313 L -22.928 10.773 L -22.880 10.231 L -22.838 9.684 L -22.804 9.135 L -22.777 8.583 L -22.758 8.029 L -22.746 7.472 L -22.741 6.914 L -22.744 6.354 L -22.754 5.792 L -22.772 5.230 L -22.797 4.667 L -22.830 4.104 L -22.870 3.541 L -22.918 2.977 L -22.973 2.415 L -23.036 1.853 L -23.107 1.292 L -23.184 0.732 L -23.269 0.174 L -23.362 -0.381 L -23.461 -0.935 L -23.568 -1.486 L -23.682 -2.035 L -23.802 -2.580 L -23.930 -3.122 L -24.064 -3.660 L -24.205 -4.194 L -24.353 -4.724 L -24.507 -5.250 L -24.667 -5.771 L -24.833 -6.287 L -25.005 -6.798 L -25.184 -7.303 L -25.367 -7.803 L -25.556 -8.297 L -25.751 -8.784 L -25.951 -9.266 L -26.155 -9.740 L -26.364 -10.208 L -26.578 -10.669 L -26.796 -11.122 L -27.018 -11.568 L -27.244 -12.007 L -27.474 -12.438 L -27.707 -12.860 L -27.943 -13.275 L -28.183 -13.681 L -28.424 -14.079 L -28.669 -14.468 L -28.916 -14.848 L -29.164 -15.220 L -29.415 -15.583 L -29.666 -15.936 L -29.919 -16.280 L -30.173 -16.615 L -30.428 -16.940 L -30.683 -17.256 L -30.938 -17.563 L -31.193 -17.859 L -31.447 -18.146 L -31.701 -18.424 L -31.954 -18.691 L -32.205 -18.949 L -32.455 -19.196 L -32.703 -19.434 L -32.949 -19.662 L -33.193 -19.880 L -33.434 -20.088 L -33.672 -20.286 L -33.907 -20.475 L -34.139 -20.654 L -34.366 -20.822 L -34.590 -20.981 L -34.809 -21.131 L -35.024 -21.271 L -35.234 -21.401 L -35.439 -21.522 L -35.639 -21.633 L -35.833 -21.736 L -36.021 -21.829 L -36.204 -21.913 L -36.379 -21.988 L -36.549 -22.054 L -36.711 -22.112 L -36.867 -22.161 L -37.015 -22.202 L -37.156 -22.234 L -37.289 -22.259 L -37.414 -22.276 L -37.532 -22.284 L -37.640 -22.286 L -37.741 -22.280 L -37.833 -22.267 L -37.916 -22.247 L -37.989 -22.220 L -38.054 -22.187 L -38.110 -22.147 L -38.155 -22.102 L -38.192 -22.050 L -38.218 -21.993 L -38.235 -21.930 L -38.241 -21.862 L -38.238 -21.790 L -38.224 -21.712 L -38.200 -21.631 L -38.165 -21.545 L -38.120 -21.455 L -38.065 -21.361 L -37.998 -21.264 L -37.921 -21.164 L -37.834 -21.061 L -37.735 -20.955 L -37.625 -20.847 L -37.505 -20.737 L -37.374 -20.625 L -37.232 -20.512 L -37.079 -20.397 L -36.915 -20.281 L -36.740 -20.165 L -36.555 -20.048 L -36.358 -19.930 L -36.151 -19.813 L -35.933 -19.697 L -35.705 -19.580 L -35.465 -19.465 L -35.216 -19.351 L -34.956 -19.238 L -34.685 -19.127 L -34.405 -19.018 L -34.114 -18.911 L -33.813 -18.806 L -33.503 -18.704 L -33.182 -18.605 L -32.852 -18.509 L -32.513 -18.416 L -32.164 -18.327 L -31.806 -18.242 L -31.439 -18.161 L -31.063 -18.084 L -30.679 -18.012 L -30.286 -17.944 L -29.885 -17.881 L -29.476 -17.823 L -29.059 -17.771 L -28.634 -17.724 L -28.202 -17.682 L -27.763 -17.647 L -27.317 -17.617 L -26.864 -17.594 L -26.405 -17.577 L -25.939 -17.566 L -25.468 -17.562 L -24.991 -17.565 L -24.508 -17.574 L -24.020 -17.591 L -23.528 -17.614 L -23.030 -17.645 L -22.528 -17.683 L -22.022 -17.728 L -21.513 -17.781 L -20.999 -17.841 L -20.483 -17.909 L -19.963 -17.984 L -19.441 -18.067 L -18.917 -18.158 L -18.390 -18.256 L -17.861 -18.363 L -17.331 -18.477 L -16.800 -18.598 L -16.268 -18.728 L -15.735 -18.865 L -15.202 -19.010 L -14.668 -19.163 L -14.135 -19.324 L -13.603 -19.492 L -13.071 -19.667 L -12.540 -19.850 L -12.011 -20.041 L -11.484 -20.239 L -10.958 -20.444 L -10.435 -20.657 L -9.914 -20.876 L -9.396 -21.103 L -8.881 -21.336 L -8.369 -21.576 L -7.861 -21.823 L -7.357 -22.077 L -6.856 -22.336 L -6.361 -22.602 L -5.869 -22.874 L -5.383 -23.151 L -4.902 -23.435 L -4.426 -23.723 L -3.956 -24.017 L -3.491 -24.317 L -3.032 -24.621 L -2.580 -24.930 L -2.134 -25.243 L -1.695 -25.561 L -1.262 -25.882 L -0.836 -26.208 L -0.418 -26.537 L -0.007 -26.869 L 0.397 -27.205 L 0.793 -27.544 L 1.181 -27.885 L 1.561 -28.228 L 1.934 -28.574 L 2.297 -28.921 L 2.653 -29.271 L 3.000 -29.621 L 3.339 -29.973 L 3.669 -30.325 L 3.990 -30.678 L 4.303 -31.031 L 4.606 -31.384 L 4.901 -31.737 L 5.186 -32.089 L 5.463 -32.440 L 5.730 -32.790 L 5.989 -33.139 L 6.238 -33.486 L 6.478 -33.831 L 6.709 -34.173 L 6.930 -34.513 L 7.143 -34.851 L 7.346 -35.185 L 7.541 -35.516 L 7.726 -35.843 L 7.902 -36.166 L 8.069 -36.484 L 8.228 -36.799 L 8.377 -37.108 L 8.518 -37.413 L 8.650 -37.712 L 8.773 -38.005 L 8.888 -38.293 L 8.995 -38.575 L 9.093 -38.850 L 9.183 -39.119 L 9.266 -39.381 L 9.340 -39.636 L 9.407 -39.883 L 9.466 -40.123 L 9.517 -40.355 L 9.562 -40.580 L 9.599 -40.796 L 9.629 -41.004 L 9.653 -41.203 L 9.670 -41.394 L 9.681 -41.575 L 9.685 -41.748 L 9.684 -41.911 L 9.677 -42.064 L 9.664 -42.208 L 9.647 -42.342 L 9.624 -42.467 L 9.596 -42.581 L 9.564 -42.685 L 9.527 -42.779 L 9.486 -42.862 L 9.441 -42.934 L 9.393 -42.996 L 9.342 -43.048 L 9.287 -43.088 L 9.229 -43.118 L 9.169 -43.136 L 9.106 -43.144 L 9.042 -43.140 L 8.975 -43.126 L 8.907 -43.100 L 8.838 -43.063 L 8.767 -43.015 L 8.696 -42.955 L 8.625 -42.884 L 8.553 -42.803 L 8.481 -42.710 L 8.410 -42.605 L 8.339 -42.490 L 8.269 -42.364 L 8.200 -42.226 L 8.132 -42.078 L 8.066 -41.918 L 8.002 -41.748 L 7.941 -41.567 L 7.881 -41.375 L 7.824 -41.173 L 7.770 -40.961 L 7.720 -40.738 L 7.672 -40.504 L 7.629 -40.261 L 7.589 -40.008 L 7.553 -39.745 L 7.522 -39.472 L 7.495 -39.190 L 7.472 -38.898 L 7.455 -38.598 L 7.443 -38.288 L 7.437 -37.970 L 7.436 -37.643 L 7.440 -37.307 L 7.451 -36.964 L 7.468 -36.612 L 7.491 -36.253 L 7.521 -35.886 L 7.557 -35.512 L 7.600 -35.131 L 7.650 -34.743 L 7.707 -34.348 L 7.771 -33.948 L 7.842 -33.541 L 7.921 -33.128 L 8.008 -32.710 L 8.102 -32.286 L 8.204 -31.857 L 8.314 -31.424 L 8.431 -30.986 L 8.557 -30.544 L 8.691 -30.098 L 8.833 -29.648 L 8.983 -29.195 L 9.141 -28.739 L 9.307 -28.281 L 9.482 -27.819 L 9.665 -27.356 L 9.856 -26.890 L 10.055 -26.423 L 10.263 -25.954 L 10.479 -25.485 L 10.703 -25.015 L 10.935 -24.544 L 11.175 -24.073 L 11.424 -23.602 L 11.680 -23.131 L 11.944 -22.662 L 12.217 -22.193 L 12.497 -21.725 L 12.784 -21.259 L 13.080 -20.794 L 13.382 -20.332 L 13.692 -19.872 L 14.010 -19.415 L 14.334 -18.960 L 14.666 -18.509 L 15.004 -18.061 L 15.349 -17.616 L 15.700 -17.176 L 16.058 -16.739 L 16.421 -16.307 L 16.791 -15.880 L 17.167 -15.457 L 17.548 -15.039 L 17.934 -14.627 L 18.326 -14.220 L 18.723 -13.818 L 19.124 -13.423 L 19.530 -13.034 L 19.940 -12.650 L 20.355 -12.274 L 20.773 -11.904 L 21.195 -11.540 L 21.620 -11.184 L 22.048 -10.834 L 22.479 -10.492 L 22.912 -10.157 L 23.348 -9.830 L 23.786 -9.510 L 24.226 -9.198 L 24.667 -8.894 L 25.109 -8.598 L 25.552 -8.309 L 25.996 -8.029 L 26.441 -7.757 L 26.885 -7.494 L 27.329 -7.238 L 27.773 -6.991 L 28.216 -6.752 L 28.658 -6.522 L 29.098 -6.300 L 29.537 -6.087 L 29.974 -5.882 L 30.409 -5.685 L 30.842 -5.497 L 31.271 -5.318 L 31.698 -5.146 L 32.121 -4.984 L 32.540 -4.829 L 32.956 -4.683 L 33.367 -4.545 L 33.774 -4.415 L 34.177 -4.294 L 34.574 -4.180 L 34.966 -4.074 L 35.352 -3.976 L 35.733 -3.886 L 36.107 -3.803 L 36.476 -3.728 L 36.837 -3.660 L 37.192 -3.600 L 37.540 -3.546 L 37.881 -3.500 L 38.214 -3.460 L 38.539 -3.427 L 38.856 -3.400 L 39.165 -3.380 L 39.466 -3.366 L 39.759 -3.357 L 40.042 -3.354 L 40.316 -3.357 L 40.582 -3.365 L 40.838 -3.378 L 41.084 -3.396 L 41.321 -3.419 L 41.548 -3.446 L 41.766 -3.478 L 41.973 -3.513 L 42.169 -3.552 L 42.356 -3.595 L 42.532 -3.641 L 42.697 -3.690 L 42.852 -3.741 L 42.996 -3.795 L 43.129 -3.852 L 43.251 -3.910 L 43.362 -3.970 L 43.462 -4.032 L 43.551 -4.095 L 43.629 -4.159 L 43.695 -4.223 L 43.751 -4.288 L 43.795 -4.353 L 43.828 -4.418 L 43.849 -4.483 L 43.859 -4.547 L 43.858 -4.610 L 43.846 -4.672 L 43.823 -4.732 L 43.788 -4.791 L 43.743 -4.847 L 43.686 -4.902 L 43.619 -4.954 L 43.540 -5.003 L 43.451 -5.049 L 43.351 -5.092 L 43.240 -5.132 L 43.119 -5.168 L 42.987 -5.199 L 42.845 -5.227 L 42.693 -5.250 L 42.531 -5.268 L 42.359 -5.282 L 42.178 -5.290 L 41.986 -5.293 L 41.786 -5.290 L 41.576 -5.282 L 41.357 -5.267 L 41.129 -5.247 L 40.893 -5.220 L 40.648 -5.186 L 40.395 -5.146 L 40.133 -5.098 L 39.864 -5.044 L 39.588 -4.983 L 39.304 -4.914 L 39.012 -4.837 L 38.714 -4.753 L 38.409 -4.661 L 38.098 -4.560 L 37.780 -4.452 L 37.457 -4.336 L 37.128 -4.211 L 36.793 -4.078 L 36.454 -3.937 L 36.109 -3.787 L 35.760 -3.628 L 35.406 -3.461 L 35.049 -3.285 L 34.687 -3.100 L 34.323 -2.906 L 33.954 -2.703 L 33.583 -2.492 L 33.210 -2.271 L 32.833 -2.042 L 32.455 -1.804 L 32.075 -1.556 L 31.693 -1.300 L 31.311 -1.035 L 30.927 -0.762 L 30.542 -0.479 L 30.157 -0.188 L 29.772 0.112 L 29.388 0.421 L 29.003 0.738 L 28.620 1.064 L 28.237 1.398 L 27.855 1.740 L 27.476 2.090 L 27.098 2.449 L 26.722 2.815 L 26.348 3.189 L 25.977 3.571 L 25.609 3.960 L 25.243 4.357 L 24.882 4.761 L 24.523 5.172 L 24.169 5.589 L 23.819 6.014 L 23.472 6.444 L 23.131 6.881 L 22.794 7.325 L 22.462 7.774 L 22.135 8.228 L 21.813 8.688 L 21.497 9.154 L 21.187 9.624 L 20.882 10.099 L 20.583 10.578 L 20.291 11.062 L 20.005 11.550 L 19.726 12.042 L 19.453 12.537 L 19.187 13.035 L 18.928 13.536 L 18.676 14.040 L 18.431 14.547 L 18.193 15.055 L 17.963 15.566 L 17.740 16.078 L 17.525 16.591 L 17.317 17.105 L 17.117 17.621 L 16.925 18.136 L 16.740 18.652 L 16.564 19.168 L 16.395 19.683 L 16.234 20.197 L 16.081 20.711 L 15.936 21.223 L 15.799 21.734 L 15.670 22.243 L 15.548 22.749 L 15.435 23.254 L 15.329 23.755 L 15.231 24.253 L 15.141 24.748 L 15.058 25.240 L 14.984 25.727 L 14.916 26.211 L 14.856 26.690 L 14.804 27.164 L 14.759 27.633 L 14.721 28.097 L 14.690 28.556 L 14.666 29.009 L 14.648 29.456 L 14.638 29.896 L 14.634 30.330 L 14.636 30.757 L 14.645 31.177 L 14.659 31.590 L 14.680 31.996 L 14.706 32.393 L 14.738 32.783 L 14.775 33.165 L 14.817 33.538 L 14.865 33.903 L 14.917 34.259 L 14.973 34.607 L 15.034 34.945 L 15.099 35.274 L 15.168 35.594 L 15.241 35.904 L 15.317 36.204 L 15.397 36.495 L 15.479 36.775 L 15.564 37.046 L 15.651 37.306 L 15.741 37.556 L 15.833 37.795 L 15.926 38.024 L 16.021 38.242 L 16.117 38.450 L 16.214 38.647 L 16.311 38.833 L 16.409 39.008 L 16.507 39.172 L 16.605 39.325 L 16.703 39.467 Z" fill="none" stroke="red" stroke-width="0.5" stroke-linecap="round" />
        <path d="M 0.000 46.200 L 0.181 46.245 L 0.376 46.379 L 0.603 46.598 L 0.873 46.896 L 1.202 47.267 L 1.601 47.700 L 2.080 48.184 L 2.647 48.706 L 3.311 49.252 L 4.074 49.807 L 4.940 50.356 L 5.908 50.884 L 6.976 51.374 L 8.140 51.812 L 9.392 52.184 L 10.723 52.477 L 12.124 52.679 L 13.581 52.781 L 15.081 52.773 L 16.610 52.651 L 18.151 52.411 L 19.690 52.051 L 21.210 51.571 L 22.696 50.976 L 24.133 50.270 L 25.506 49.461 L 26.803 48.559 L 28.014 47.574 L 29.127 46.520 L 30.136 45.410 L 31.036 44.259 L 31.823 43.083 L 32.496 41.897 L 33.057 40.718 L 33.510 39.560 L 33.860 38.438 L 34.116 37.366 L 34.287 36.355 L 34.386 35.416 L 34.424 34.558 L 34.416 33.787 L 34.377 33.107 L 34.322 32.521 L 34.266 32.029 L 34.226 31.628 L 34.214 31.313 L 34.246 31.078 L 34.333 30.914 L 34.488 30.810 L 34.718 30.754 L 35.032 30.732 L 35.435 30.731 L 35.931 30.734 L 36.519 30.728 L 37.199 30.696 L 37.967 30.623 L 38.816 30.495 L 39.740 30.299 L 40.727 30.023 L 41.767 29.657 L 42.846 29.191 L 43.951 28.620 L 45.065 27.939 L 46.173 27.145 L 47.261 26.240 L 48.311 25.225 L 49.309 24.105 L 50.242 22.887 L 51.094 21.581 L 51.856 20.196 L 52.517 18.746 L 53.069 17.243 L 53.506 15.703 L 53.824 14.141 L 54.021 12.573 L 54.099 11.015 L 54.061 9.482 L 53.911 7.989 L 53.658 6.551 L 53.311 5.179 L 52.880 3.885 L 52.379 2.679 L 51.822 1.568 L 51.222 0.557 L 50.597 -0.350 L 49.960 -1.154 L 49.328 -1.856 L 48.715 -2.458 L 48.137 -2.968 L 47.606 -3.394 L 47.134 -3.745 L 46.731 -4.033 L 46.405 -4.271 L 46.164 -4.473 L 46.010 -4.654 L 45.947 -4.829 L 45.973 -5.014 L 46.085 -5.222 L 46.279 -5.470 L 46.548 -5.771 L 46.882 -6.136 L 47.271 -6.578 L 47.702 -7.105 L 48.162 -7.724 L 48.636 -8.441 L 49.108 -9.258 L 49.564 -10.177 L 49.987 -11.195 L 50.363 -12.308 L 50.677 -13.511 L 50.917 -14.795 L 51.069 -16.150 L 51.123 -17.564 L 51.072 -19.023 L 50.908 -20.515 L 50.627 -22.022 L 50.227 -23.530 L 49.707 -25.023 L 49.072 -26.484 L 48.324 -27.900 L 47.472 -29.255 L 46.524 -30.536 L 45.491 -31.732 L 44.385 -32.833 L 43.220 -33.830 L 42.011 -34.718 L 40.772 -35.492 L 39.521 -36.152 L 38.271 -36.698 L 37.040 -37.132 L 35.841 -37.462 L 34.689 -37.693 L 33.595 -37.835 L 32.572 -37.900 L 31.628 -37.899 L 30.770 -37.848 L 30.004 -37.759 L 29.332 -37.649 L 28.755 -37.533 L 28.272 -37.427 L 27.877 -37.344 L 27.565 -37.300 L 27.328 -37.307 L 27.156 -37.377 L 27.036 -37.519 L 26.956 -37.742 L 26.902 -38.053 L 26.858 -38.453 L 26.810 -38.946 L 26.742 -39.531 L 26.639 -40.204 L 26.487 -40.960 L 26.271 -41.791 L 25.980 -42.689 L 25.602 -43.643 L 25.129 -44.638 L 24.553 -45.663 L 23.869 -46.701 L 23.075 -47.738 L 22.170 -48.758 L 21.156 -49.745 L 20.037 -50.683 L 18.819 -51.559 L 17.510 -52.359 L 16.122 -53.070 L 14.665 -53.683 L 13.153 -54.189 L 11.601 -54.581 L 10.024 -54.854 L 8.438 -55.007 L 6.858 -55.039 L 5.300 -54.954 L 3.779 -54.756 L 2.310 -54.451 L 0.906 -54.049 L -0.422 -53.560 L -1.663 -52.997 L -2.810 -52.372 L -3.857 -51.702 L -4.800 -51.000 L -5.637 -50.283 L -6.370 -49.566 L -7.002 -48.864 L -7.537 -48.192 L -7.984 -47.563 L -8.352 -46.990 L -8.652 -46.484 L -8.896 -46.053 L -9.099 -45.705 L -9.274 -45.443 L -9.438 -45.272 L -9.606 -45.190 L -9.792 -45.197 L -10.011 -45.287 L -10.278 -45.454 L -10.605 -45.690 L -11.003 -45.984 L -11.483 -46.325 L -12.052 -46.698 L -12.716 -47.091 L -13.478 -47.487 L -14.341 -47.871 L -15.302 -48.228 L -16.359 -48.543 L -17.505 -48.801 L -18.734 -48.988 L -20.036 -49.091 L -21.399 -49.101 L -22.811 -49.007 L -24.258 -48.804 L -25.724 -48.485 L -27.193 -48.048 L -28.651 -47.492 L -30.082 -46.819 L -31.469 -46.034 L -32.798 -45.143 L -34.057 -44.154 L -35.232 -43.077 L -36.314 -41.925 L -37.293 -40.710 L -38.163 -39.447 L -38.919 -38.152 L -39.560 -36.839 L -40.085 -35.525 L -40.497 -34.226 L -40.801 -32.955 L -41.003 -31.729 L -41.112 -30.559 L -41.139 -29.456 L -41.097 -28.432 L -40.998 -27.493 L -40.857 -26.645 L -40.689 -25.893 L -40.509 -25.236 L -40.333 -24.675 L -40.177 -24.205 L -40.053 -23.821 L -39.977 -23.515 L -39.959 -23.279 L -40.010 -23.100 L -40.140 -22.966 L -40.353 -22.863 L -40.656 -22.777 L -41.050 -22.692 L -41.535 -22.592 L -42.110 -22.464 L -42.768 -22.291 L -43.504 -22.060 L -44.308 -21.759 L -45.171 -21.375 L -46.080 -20.900 L -47.021 -20.325 L -47.979 -19.645 L -48.941 -18.857 L -49.889 -17.959 L -50.808 -16.952 L -51.683 -15.840 L -52.500 -14.629 L -53.244 -13.326 L -53.902 -11.941 L -54.465 -10.486 L -54.922 -8.973 L -55.267 -7.417 L -55.494 -5.833 L -55.601 -4.236 L -55.588 -2.642 L -55.455 -1.067 L -55.207 0.474 L -54.851 1.965 L -54.394 3.394 L -53.847 4.749 L -53.222 6.018 L -52.532 7.194 L -51.792 8.269 L -51.015 9.240 L -50.219 10.105 L -49.418 10.862 L -48.628 11.516 L -47.864 12.071 L -47.140 12.533 L -46.468 12.912 L -45.860 13.218 L -45.325 13.463 L -44.871 13.661 L -44.503 13.826 L -44.225 13.974 L -44.037 14.119 L -43.939 14.277 L -43.926 14.462 L -43.992 14.690 L -44.131 14.973 L -44.331 15.322 L -44.582 15.750 L -44.871 16.262 L -45.183 16.867 L -45.504 17.569 L -45.818 18.368 L -46.110 19.266 L -46.365 20.259 L -46.567 21.343 L -46.704 22.510 L -46.761 23.752 L -46.728 25.058 L -46.595 26.415 L -46.355 27.809 L -46.001 29.226 L -45.530 30.651 L -44.942 32.067 L -44.237 33.459 L -43.419 34.811 L -42.493 36.108 L -41.467 37.337 L -40.352 38.486 L -39.159 39.542 L -37.899 40.497 L -36.589 41.344 L -35.242 42.077 L -33.874 42.694 L -32.502 43.194 L -31.140 43.579 L -29.805 43.853 L -28.510 44.022 L -27.269 44.095 L -26.094 44.081 L -24.995 43.993 L -23.980 43.844 L -23.057 43.647 L -22.229 43.418 L -21.498 43.172 L -20.864 42.925 L -20.323 42.692 L -19.872 42.487 L -19.504 42.324 L -19.208 42.216 L -18.974 42.173 L -18.791 42.206 L -18.645 42.320 L -18.520 42.522 L -18.402 42.814 L -18.277 43.197 L -18.127 43.669 L -17.939 44.227 L -17.698 44.864 L -17.392 45.572 L -17.008 46.340 L -16.536 47.158 L -15.969 48.012 L -15.299 48.888 L -14.522 49.770 L -13.638 50.644 L -12.646 51.493 L -11.548 52.302 L -10.351 53.056 L -9.061 53.741 L -7.688 54.345 L -6.242 54.855 L -4.736 55.263 L -3.183 55.559 L -1.600 55.740 L -0.000 55.800 L 1.600 55.740 L 3.183 55.559 L 4.736 55.263 L 6.242 54.855 L 7.688 54.345 L 9.061 53.741 L 10.351 53.056 L 11.548 52.302 L 12.646 51.493 L 13.638 50.644 L 14.522 49.770 L 15.299 48.888 L 15.969 48.012 L 16.536 47.158 L 17.008 46.340 L 17.392 45.572 L 17.698 44.864 L 17.939 44.227 L 18.127 43.669 L 18.277 43.197 L 18.402 42.814 L 18.520 42.522 L 18.645 42.320 L 18.791 42.206 L 18.974 42.173 L 19.208 42.216 L 19.504 42.324 L 19.872 42.487 L 20.323 42.692 L 20.864 42.925 L 21.498 43.172 L 22.229 43.418 L 23.057 43.647 L 23.980 43.844 L 24.995 43.993 L 26.094 44.081 L 27.269 44.095 L 28.510 44.022 L 29.805 43.853 L 31.140 43.579 L 32.502 43.194 L 33.874 42.694 L 35.242 42.077 L 36.589 41.344 L 37.899 40.497 L 39.159 39.542 L 40.352 38.486 L 41.467 37.337 L 42.493 36.108 L 43.419 34.811 L 44.237 33.459 L 44.942 32.067 L 45.530 30.651 L 46.001 29.226 L 46.355 27.809 L 46.595 26.415 L 46.728 25.058 L 46.761 23.752 L 46.704 22.510 L 46.567 21.343 L 46.365 20.259 L 46.110 19.266 L 45.818 18.368 L 45.504 17.569 L 45.183 16.867 L 44.871 16.262 L 44.582 15.750 L 44.331 15.322 L 44.131 14.973 L 43.992 14.690 L 43.926 14.462 L 43.939 14.277 L 44.037 14.119 L 44.225 13.974 L 44.503 13.826 L 44.871 13.661 L 45.325 13.463 L 45.860 13.218 L 46.468 12.912 L 47.140 12.533 L 47.864 12.071 L 48.628 11.516 L 49.418 10.862 L 50.219 10.105 L 51.015 9.240 L 51.792 8.269 L 52.532 7.194 L 53.222 6.018 L 53.847 4.749 L 54.394 3.394 L 54.851 1.965 L 55.207 0.474 L 55.455 -1.067 L 55.588 -2.642 L 55.601 -4.236 L 55.494 -5.833 L 55.267 -7.417 L 54.922 -8.973 L 54.465 -10.486 L 53.902 -11.941 L 53.244 -13.326 L 52.500 -14.629 L 51.683 -15.840 L 50.808 -16.952 L 49.889 -17.959 L 48.941 -18.857 L 47.979 -19.645 L 47.021 -20.325 L 46.080 -20.900 L 45.171 -21.375 L 44.308 -21.759 L 43.504 -22.060 L 42.768 -22.291 L 42.110 -22.464 L 41.535 -22.592 L 41.050 -22.692 L 40.656 -22.777 L 40.353 -22.863 L 40.140 -22.966 L 40.010 -23.100 L 39.959 -23.279 L 39.977 -23.515 L 40.053 -23.821 L 40.177 -24.205 L 40.333 -24.675 L 40.509 -25.236 L 40.689 -25.893 L 40.857 -26.645 L 40.998 -27.493 L 41.097 -28.432 L 41.139 -29.456 L 41.112 -30.559 L 41.003 -31.729 L 40.801 -32.955 L 40.497 -34.226 L 40.085 -35.525 L 39.560 -36.839 L 38.919 -38.152 L 38.163 -39.447 L 37.293 -40.710 L 36.314 -41.925 L 35.232 -43.077 L 34.057 -44.154 L 32.798 -45.143 L 31.469 -46.034 L 30.082 -46.819 L 28.651 -47.492 L 27.193 -48.048 L 25.724 -48.485 L 24.258 -48.804 L 22.811 -49.007 L 21.399 -49.101 L 20.036 -49.091 L 18.734 -48.988 L 17.505 -48.801 L 16.359 -48.543 L 15.302 -48.228 L 14.341 -47.871 L 13.478 -47.487 L 12.716 -47.091 L 12.052 -46.698 L 11.483 -46.325 L 11.003 -45.984 L 10.605 -45.690 L 10.278 -45.454 L 10.011 -45.287 L 9.792 -45.197 L 9.606 -45.190 L 9.438 -45.272 L 9.274 -45.443 L 9.099 -45.705 L 8.896 -46.053 L 8.652 -46.484 L 8.352 -46.990 L 7.984 -47.563 L 7.537 -48.192 L 7.002 -48.864 L 6.370 -49.566 L 5.637 -50.283 L 4.800 -51.000 L 3.857 -51.702 L 2.810 -52.372 L 1.663 -52.997 L 0.422 -53.560 L -0.906 -54.049 L -2.310 -54.451 L -3.779 -54.756 L -5.300 -54.954 L -6.858 -55.039 L -8.438 -55.007 L -10.024 -54.854 L -11.601 -54.581 L -13.153 -54.189 L -14.665 -53.683 L -16.122 -53.070 L -17.510 -52.359 L -18.819 -51.559 L -20.037 -50.683 L -21.156 -49.745 L -22.170 -48.758 L -23.075 -47.738 L -23.869 -46.701 L -24.553 -45.663 L -25.129 -44.638 L -25.602 -43.643 L -25.980 -42.689 L -26.271 -41.791 L -26.487 -40.960 L -26.639 -40.204 L -26.742 -39.531 L -26.810 -38.946 L -26.858 -38.453 L -26.902 -38.053 L -26.956 -37.742 L -27.036 -37.519 L -27.156 -37.377 L -27.328 -37.307 L -27.565 -37.300 L -27.877 -37.344 L -28.272 -37.427 L -28.755 -37.533 L -29.332 -37.649 L -30.004 -37.759 L -30.770 -37.848 L -31.628 -37.899 L -32.572 -37.900 L -33.595 -37.835 L -34.689 -37.693 L -35.841 -37.462 L -37.040 -37.132 L -38.271 -36.698 L -39.521 -36.152 L -40.772 -35.492 L -42.011 -34.718 L -43.220 -33.830 L -44.385 -32.833 L -45.491 -31.732 L -46.524 -30.536 L -47.472 -29.255 L -48.324 -27.900 L -49.072 -26.484 L -49.707 -25.023 L -50.227 -23.530 L -50.627 -22.022 L -50.908 -20.515 L -51.072 -19.023 L -51.123 -17.564 L -51.069 -16.150 L -50.917 -14.795 L -50.677 -13.511 L -50.363 -12.308 L -49.987 -11.195 L -49.564 -10.177 L -49.108 -9.258 L -48.636 -8.441 L -48.162 -7.724 L -47.702 -7.105 L -47.271 -6.578 L -46.882 -6.136 L -46.548 -5.771 L -46.279 -5.470 L -46.085 -5.222 L -45.973 -5.014 L -45.947 -4.829 L -46.010 -4.654 L -46.164 -4.473 L -46.405 -4.271 L -46.731 -4.033 L -47.134 -3.745 L -47.606 -3.394 L -48.137 -2.968 L -48.715 -2.458 L -49.328 -1.856 L -49.960 -1.154 L -50.597 -0.350 L -51.222 0.557 L -51.822 1.568 L -52.379 2.679 L -52.880 3.885 L -53.311 5.179 L -53.658 6.551 L -53.911 7.989 L -54.061 9.482 L -54.099 11.015 L -54.021 12.573 L -53.824 14.141 L -53.506 15.703 L -53.069 17.243 L -52.517 18.746 L -51.856 20.196 L -51.094 21.581 L -50.242 22.887 L -49.309 24.105 L -48.311 25.225 L -47.261 26.240 L -46.173 27.145 L -45.065 27.939 L -43.951 28.620 L -42.846 29.191 L -41.767 29.657 L -40.727 30.023 L -39.740 30.299 L -38.816 30.495 L -37.967 30.623 L -37.199 30.696 L -36.519 30.728 L -35.931 30.734 L -35.435 30.731 L -35.032 30.732 L -34.718 30.754 L -34.488 30.810 L -34.333 30.914 L -34.246 31.078 L -34.214 31.313 L -34.226 31.628 L -34.266 32.029 L -34.322 32.521 L -34.377 33.107 L -34.416 33.787 L -34.424 34.558 L -34.386 35.416 L -34.287 36.355 L -34.116 37.366 L -33.860 38.438 L -33.510 39.560 L -33.057 40.718 L -32.496 41.897 L -31.823 43.083 L -31.036 44.259 L -30.136 45.410 L -29.127 46.520 L -28.014 47.574 L -26.803 48.559 L -25.506 49.461 L -24.133 50.270 L -22.696 50.976 L -21.210 51.571 L -19.690 52.051 L -18.151 52.411 L -16.610 52.651 L -15.081 52.773 L -13.581 52.781 L -12.124 52.679 L -10.723 52.477 L -9.392 52.184 L -8.140 51.812 L -6.976 51.374 L -5.908 50.884 L -4.940 50.356 L -4.074 49.807 L -3.311 49.252 L -2.647 48.706 L -2.080 48.184 L -1.601 47.700 L -1.202 47.267 L -0.873 46.896 L -0.603 46.598 L -0.376 46.379 L -0.181 46.245 Z" fill="none" stroke="black" stroke-width="0.5" stroke-linecap="round" />
    </g>
</svg>