<svg width="126mm" height="76mm" viewBox="-38 -38 126 76" xmlns="http://www.w3.org/2000/svg" version="1.1" baseProfile="full">
    <style>
        path { fill: lightgrey; stroke: black; stroke-width: 0.2}
        .helpline  { fill: none; stroke: black; stroke-width: 0.05; stroke-dasharray: 1 0.8 }
        .dotline   { fill: none; stroke: black; stroke-width: 0.05; stroke-dasharray: 0.1 0.1 }
        .symline   { fill: none; stroke: black; stroke-width: 0.1; stroke-dasharray: 1.1 0.5 0.1 0.5; stroke-dashoffset: -0.55 }
    </style>
    <g transform="scale(-1 -1) rotate(7.5)">
        <path d="M -10.442806828103654 26.18525892471663 A 3.310 3.310 0 0 1 -4.049 27.899 Q -4.158 28.651 -3.916 29.743 Q -3.218 32.892 -1.493 34.968 A 35.000 35.000 0 0 0 1.493 34.968 Q 3.218 32.892 3.916 29.743 Q 4.158 28.651 4.049 27.899 A 3.310 3.310 0 0 1 10.443 26.185 Q 10.724 26.891 11.481 27.716 Q 13.659 30.094 16.191 31.030 A 35.000 35.000 0 0 0 18.777 29.537 Q 19.233 26.876 18.263 23.801 Q 17.926 22.733 17.456 22.136 A 3.310 3.310 0 0 1 22.136 17.456 Q 22.733 17.926 23.801 18.263 Q 26.876 19.233 29.537 18.777 A 35.000 35.000 0 0 0 31.030 16.191 Q 30.094 13.659 27.716 11.481 Q 26.891 10.724 26.185 10.443 A 3.310 3.310 0 0 1 27.899 4.049 Q 28.651 4.158 29.743 3.916 Q 32.892 3.218 34.968 1.493 A 35.000 35.000 0 0 0 34.968 -1.493 Q 32.892 -3.218 29.743 -3.916 Q 28.651 -4.158 27.899 -4.049 A 3.310 3.310 0 0 1 26.185 -10.443 Q 26.891 -10.724 27.716 -11.481 Q 30.094 -13.659 31.030 -16.191 A 35.000 35.000 0 0 0 29.537 -18.777 Q 26.876 -19.233 23.801 -18.263 Q 22.733 -17.926 22.136 -17.456 A 3.310 3.310 0 0 1 17.456 -22.136 Q 17.926 -22.733 18.263 -23.801 Q 19.233 -26.876 18.777 -29.537 A 35.000 35.000 0 0 0 16.191 -31.030 Q 13.659 -30.094 11.481 -27.716 Q 10.724 -26.891 10.443 -26.185 A 3.310 3.310 0 0 1 4.049 -27.899 Q 4.158 -28.651 3.916 -29.743 Q 3.218 -32.892 1.493 -34.968 A 35.000 35.000 0 0 0 -1.493 -34.968 Q -3.218 -32.892 -3.916 -29.743 Q -4.158 -28.651 -4.049 -27.899 A 3.310 3.310 0 0 1 -10.443 -26.185 Q -10.724 -26.891 -11.481 -27.716 Q -13.659 -30.094 -16.191 -31.030 A 35.000 35.000 0 0 0 -18.777 -29.537 Q -19.233 -26.876 -18.263 -23.801 Q -17.926 -22.733 -17.456 -22.136 A 3.310 3.310 0 0 1 -22.136 -17.456 Q -22.733 -17.926 -23.801 -18.263 Q -26.876 -19.233 -29.537 -18.777 A 35.000 35.000 0 0 0 -31.030 -16.191 Q -30.094 -13.659 -27.716 -11.481 Q -26.891 -10.724 -26.185 -10.443 A 3.310 3.310 0 0 1 -27.899 -4.049 Q -28.651 -4.158 -29.743 -3.916 Q -32.892 -3.218 -34.968 -1.493 A 35.000 35.000 0 0 0 -34.968 1.493 Q -32.892 3.218 -29.743 3.916 Q -28.651 4.158 -27.899 4.049 A 3.310 3.310 0 0 1 -26.185 10.443 Q -26.891 10.724 -27.716 11.481 Q -30.094 13.659 -31.030 16.191 A 35.000 35.000 0 0 0 -29.537 18.777 Q -26.876 19.233 -23.801 18.263 Q -22.733 17.926 -22.136 17.456 A 3.310 3.310 0 0 1 -17.456 22.136 Q -17.926 22.733 -18.263 23.801 Q -19.233 26.876 -18.777 29.537 A 35.000 35.000 0 0 0 -16.191 31.030 Q -13.659 30.094 -11.481 27.716 Q -10.724 26.891 -10.443 26.185 C">
            <animateTransform attributeName="transform" attributeType="XML" type="rotate" from="0" to="360" dur="120s" repeatCount="indefinite"/>
        </path>
    </g>
    <g transform="scale(1 -1) translate(55 0) rotate(9)">
        <path d="M -10.387572396996623 21.071004441455432 A 3.368 3.368 0 0 1 -3.982 23.152 Q -4.089 23.777 -3.911 24.692 Q -3.276 27.960 -1.418 29.966 A 30.000 30.000 0 0 0 1.418 29.966 Q 3.276 27.960 3.911 24.692 Q 4.089 23.777 3.982 23.152 A 3.368 3.368 0 0 1 10.388 21.071 Q 10.668 21.639 11.350 22.275 Q 13.785 24.546 16.466 25.077 A 30.000 30.000 0 0 0 18.761 23.410 Q 19.085 20.695 17.678 17.678 Q 17.283 16.832 16.830 16.390 A 3.368 3.368 0 0 1 20.789 10.941 Q 21.349 11.236 22.275 11.350 Q 25.580 11.756 28.062 10.609 A 30.000 30.000 0 0 0 28.938 7.911 Q 27.604 5.525 24.692 3.911 Q 23.876 3.459 23.250 3.368 A 3.368 3.368 0 0 1 23.250 -3.368 Q 23.876 -3.459 24.692 -3.911 Q 27.604 -5.525 28.938 -7.911 A 30.000 30.000 0 0 0 28.062 -10.609 Q 25.580 -11.756 22.275 -11.350 Q 21.349 -11.236 20.789 -10.941 A 3.368 3.368 0 0 1 16.830 -16.390 Q 17.283 -16.832 17.678 -17.678 Q 19.085 -20.695 18.761 -23.410 A 30.000 30.000 0 0 0 16.466 -25.077 Q 13.785 -24.546 11.350 -22.275 Q 10.668 -21.639 10.388 -21.071 A 3.368 3.368 0 0 1 3.982 -23.152 Q 4.089 -23.777 3.911 -24.692 Q 3.276 -27.960 1.418 -29.966 A 30.000 30.000 0 0 0 -1.418 -29.966 Q -3.276 -27.960 -3.911 -24.692 Q -4.089 -23.777 -3.982 -23.152 A 3.368 3.368 0 0 1 -10.388 -21.071 Q -10.668 -21.639 -11.350 -22.275 Q -13.785 -24.546 -16.466 -25.077 A 30.000 30.000 0 0 0 -18.761 -23.410 Q -19.085 -20.695 -17.678 -17.678 Q -17.283 -16.832 -16.830 -16.390 A 3.368 3.368 0 0 1 -20.789 -10.941 Q -21.349 -11.236 -22.275 -11.350 Q -25.580 -11.756 -28.062 -10.609 A 30.000 30.000 0 0 0 -28.938 -7.911 Q -27.604 -5.525 -24.692 -3.911 Q -23.876 -3.459 -23.250 -3.368 A 3.368 3.368 0 0 1 -23.250 3.368 Q -23.876 3.459 -24.692 3.911 Q -27.604 5.525 -28.938 7.911 A 30.000 30.000 0 0 0 -28.062 10.609 Q -25.580 11.756 -22.275 11.350 Q -21.349 11.236 -20.789 10.941 A 3.368 3.368 0 0 1 -16.830 16.390 Q -17.283 16.832 -17.678 17.678 Q -19.085 20.695 -18.761 23.410 A 30.000 30.000 0 0 0 -16.466 25.077 Q -13.785 24.546 -11.350 22.275 Q -10.668 21.639 -10.388 21.071 C">
            <animateTransform attributeName="transform" attributeType="XML" type="rotate" from="0" to="360" dur="100s" repeatCount="indefinite"/>
        </path>
    </g>
    <g transform="scale(1 -1) translate(55 0)">
        <circle class="helpline" r="30.0"/>
        <circle class="symline"  r="25.0"/>
        <circle class="dotline"  r="23.492"/>
        <circle class="helpline" r="19.165"/>

    </g>
    <g transform="scale(1 -1)">
        <circle class="helpline" r="35.0"/>
        <circle class="symline"  r="30.0"/>
        <circle class="dotline"  r="28.191"/>
        <circle class="helpline" r="24.165"/>

    </g>
    <g transform="scale(1 -1) translate(30 0)">
        <circle cx="-30" r="0.25" fill="black"/>
        <circle cx="25"  r="0.25" fill="black"/>
        <line class="dotline" x1="-30" y1="0" x2="25" y2="0"/>
        <circle cx="-4.263" cy="11.504" r="0.25" fill="black"/>
        <circle cx="2.925"  cy="-8.035" r="0.25" fill="black"/>
        <line class="dotline" x1="-4.263" y1="11.504" x2="2.925" y2="-8.035"/>
        <line class="dotline" x1="-4.263" y1="11.504" x2="-30" y2="0"/>
        <line class="dotline" x1="25" y1="0" x2="2.925" y2="-8.035"/>
        <line class="dotline" x1="-4.263" y1="11.504" x2="2.925" y2="-8.035"/>
        <circle r="0.25" fill="red">
            <animateTransform attributeName="transform" attributeType="XML" type="translate" from="-2.524 6.935" to="2.524 -6.935" dur="10s" repeatCount="indefinite"/>
        </circle>
    </g>
</svg>
