<svg xmlns="http://www.w3.org/2000/svg" version="1.1" width="152.000mm" height="133.000mm" viewBox="-75.000 -132.000 152.000 133.000">
    <style />
    <desc />
    <g transform="scale(1, -1)">
        <g transform="rotate(90.000)">
            <path d="M 39.260 -16.262 Q 40.727 -8.887 54.158 -11.818 Q 56.123 -12.247 58.847 -11.705 Q 69.527 -9.581 74.932 -3.190 A 75.000 75.000 0 0 1 74.932 3.190 Q 69.527 9.581 58.847 11.705 Q 56.123 12.247 54.158 11.818 Q 42.183 9.205 39.260 16.262 Q 36.337 23.319 46.653 29.939 Q 48.345 31.025 49.888 33.334 Q 55.938 42.389 55.241 50.729 A 75.000 75.000 0 0 1 50.729 55.241 Q 42.389 55.938 33.334 49.888 Q 31.025 48.345 29.939 46.653 Q 23.319 36.337 16.262 39.260 Q 9.205 42.183 11.818 54.158 Q 12.247 56.123 11.705 58.847 Q 9.581 69.527 3.190 74.932 A 75.000 75.000 0 0 1 -3.190 74.932 Q -9.581 69.527 -11.705 58.847 Q -12.247 56.123 -11.818 54.158 Q -9.205 42.183 -16.262 39.260 Q -23.319 36.337 -29.939 46.653 Q -31.025 48.345 -33.334 49.888 Q -42.389 55.938 -50.729 55.241 A 75.000 75.000 0 0 1 -55.241 50.729 Q -55.938 42.389 -49.888 33.334 Q -48.345 31.025 -46.653 29.939 Q -36.337 23.319 -39.260 16.262 Q -42.183 9.205 -54.158 11.818 Q -56.123 12.247 -58.847 11.705 Q -69.527 9.581 -74.932 3.190 A 75.000 75.000 0 0 1 -74.932 -3.190 Q -69.527 -9.581 -58.847 -11.705 Q -56.123 -12.247 -54.158 -11.818 Q -42.183 -9.205 -39.260 -16.262 Q -36.337 -23.319 -46.653 -29.939 Q -48.345 -31.025 -49.888 -33.334 Q -55.938 -42.389 -55.241 -50.729 A 75.000 75.000 0 0 1 -50.729 -55.241 Q -42.389 -55.938 -33.334 -49.888 Q -31.025 -48.345 -29.939 -46.653 Q -23.319 -36.337 -16.262 -39.260 Q -9.205 -42.183 -11.818 -54.158 Q -12.247 -56.123 -11.705 -58.847 Q -9.581 -69.527 -3.190 -74.932 A 75.000 75.000 0 0 1 3.190 -74.932 Q 9.581 -69.527 11.705 -58.847 Q 12.247 -56.123 11.818 -54.158 Q 9.205 -42.183 16.262 -39.260 Q 23.319 -36.337 29.939 -46.653 Q 31.025 -48.345 33.334 -49.888 Q 42.389 -55.938 50.729 -55.241 A 75.000 75.000 0 0 1 55.241 -50.729 Q 55.938 -42.389 49.888 -33.334 Q 48.345 -31.025 46.653 -29.939 Q 36.337 -23.319 39.260 -16.262 Z" fill="none" stroke="lightgrey" stroke-width="0.35" stroke-linecap="round" />
            <path d="M 39.260 -16.262 Q 42.183 -9.205 54.158 -11.818 Q 56.123 -12.247 58.847 -11.705 Q 69.527 -9.581 74.932 -3.190 A 75.000 75.000 0 0 1 74.932 3.190 Q 69.527 9.581 58.847 11.705 Q 56.123 12.247 54.158 11.818 Q 42.183 9.205 39.260 16.262" fill="lightgrey" stroke="black" stroke-width="0.35" stroke-linecap="round" />
            <path d="M 39.260 -16.262 L 39.260 16.262 L 0.000 0.000" fill="lightgrey" stroke="none" stroke-width="0.35" stroke-linecap="round" />
            <path d="M 0.000 -60.000 A 60.000 60.000 0 0 1 0.000 60.000" fill="none" stroke="black" stroke-width="0.2" stroke-linecap="round" stroke-dasharray="2.0 1.0 0.0 1.0" stroke-dashoffset="1.0" />
            <path d="M 0.000 -55.433 A 55.433 55.433 0 0 1 0.000 55.433" fill="none" stroke="black" stroke-width="0.1" stroke-linecap="round" stroke-dasharray="0.0 0.2" />
            <line x1="0.000" y1="0.000" x2="97.007" y2="-40.182" stroke="black" stroke-width="0.1" stroke-linecap="round" />
            <line x1="0.000" y1="0.000" x2="97.007" y2="40.182" stroke="black" stroke-width="0.1" stroke-linecap="round" />
            <path d="M 94.236 -39.034 A 102.000 102.000 0 0 1 94.236 39.034" fill="none" stroke="black" stroke-width="0.1" stroke-linecap="round" />
            <g transform="translate(102.000 0.000) rotate(-90.000)">
                <text transform="translate(-0.500 0.500) scale(0.25, -0.25)" fill="black" stroke="none">τ</text>
            </g>
            <line x1="0.000" y1="0.000" x2="99.000" y2="0.000" stroke="black" stroke-width="0.2" stroke-linecap="round" stroke-dasharray="2.0 1.0 0.0 1.0" stroke-dashoffset="1.0" />
            <path d="M 88.692 -36.738 A 96.000 96.000 0 0 1 88.692 36.738" fill="none" stroke="black" stroke-width="0.1" stroke-linecap="round" />
            <g transform="translate(94.155 -18.729) rotate(-101.250)">
                <text transform="translate(-2.300 0.500) scale(0.25, -0.25)" fill="black" stroke="none">τ/2</text>
            </g>
            <g transform="translate(94.155 18.729) rotate(-78.750)">
                <text transform="translate(-2.300 0.500) scale(0.25, -0.25)" fill="black" stroke="none">τ/2</text>
            </g>
            <line x1="0.000" y1="0.000" x2="90.862" y2="-19.828" stroke="black" stroke-width="0.1" stroke-linecap="round" />
            <line x1="0.000" y1="0.000" x2="90.862" y2="19.828" stroke="black" stroke-width="0.1" stroke-linecap="round" />
            <path d="M 87.931 -19.188 A 90.000 90.000 0 0 1 87.931 19.188" fill="none" stroke="black" stroke-width="0.1" stroke-linecap="round" />
            <g transform="translate(89.481 -9.650) rotate(-96.155)">
                <text transform="translate(-0.900 0.500) scale(0.25, -0.25)" fill="black" stroke="none">β</text>
            </g>
            <g transform="translate(89.481 9.650) rotate(-83.845)">
                <text transform="translate(-0.900 0.500) scale(0.25, -0.25)" fill="black" stroke="none">β</text>
            </g>
            <line x1="0.000" y1="0.000" x2="85.328" y2="-16.973" stroke="black" stroke-width="0.1" stroke-linecap="round" />
            <line x1="0.000" y1="0.000" x2="85.328" y2="16.973" stroke="black" stroke-width="0.1" stroke-linecap="round" />
            <path d="M 82.386 -16.388 A 84.000 84.000 0 0 1 82.386 16.388" fill="none" stroke="black" stroke-width="0.1" stroke-linecap="round" />
            <g transform="translate(83.596 -8.233) rotate(-95.625)">
                <text transform="translate(-2.300 0.500) scale(0.25, -0.25)" fill="black" stroke="none">τ/4</text>
            </g>
            <g transform="translate(83.596 8.233) rotate(-84.375)">
                <text transform="translate(-2.300 0.500) scale(0.25, -0.25)" fill="black" stroke="none">τ/4</text>
            </g>
            <line x1="0.000" y1="0.000" x2="80.927" y2="-3.445" stroke="black" stroke-width="0.1" stroke-linecap="round" />
            <line x1="0.000" y1="0.000" x2="80.927" y2="3.445" stroke="black" stroke-width="0.1" stroke-linecap="round" />
            <path d="M 77.929 -3.318 A 78.000 78.000 0 0 1 77.929 3.318" fill="none" stroke="black" stroke-width="0.1" stroke-linecap="round" />
            <g transform="translate(77.982 -1.659) rotate(-91.219)">
                <text transform="translate(-0.900 0.500) scale(0.25, -0.25)" fill="black" stroke="none">γ</text>
            </g>
            <g transform="translate(77.982 1.659) rotate(-88.781)">
                <text transform="translate(-0.900 0.500) scale(0.25, -0.25)" fill="black" stroke="none">γ</text>
            </g>
            <line x1="58.847" y1="-11.705" x2="73.559" y2="-14.632" stroke="black" stroke-width="0.1" stroke-linecap="round" />
            <line x1="58.847" y1="-11.705" x2="73.559" y2="-8.779" stroke="black" stroke-width="0.1" stroke-linecap="round" />
            <path d="M 68.655 -13.656 A 10.000 10.000 0 0 1 68.655 -9.755" fill="none" stroke="black" stroke-width="0.1" stroke-linecap="round" />
            <g transform="translate(68.847 -11.705) rotate(-90.000)">
                <text transform="translate(-1.000 0.500) scale(0.25, -0.25)" fill="black" stroke="none">α</text>
            </g>
            <line x1="58.847" y1="11.705" x2="73.559" y2="8.779" stroke="black" stroke-width="0.1" stroke-linecap="round" />
            <line x1="58.847" y1="11.705" x2="73.559" y2="14.632" stroke="black" stroke-width="0.1" stroke-linecap="round" />
            <path d="M 68.655 9.755 A 10.000 10.000 0 0 1 68.655 13.656" fill="none" stroke="black" stroke-width="0.1" stroke-linecap="round" />
            <g transform="translate(68.847 11.705) rotate(-90.000)">
                <text transform="translate(-1.000 0.500) scale(0.25, -0.25)" fill="black" stroke="none">α</text>
            </g>
            <circle cx="0.000" cy="0.000" r="0.5" fill="black" />
            <circle cx="39.260" cy="-16.262" r="0.5" fill="black" />
            <circle cx="54.158" cy="-11.818" r="0.5" fill="black" />
            <circle cx="58.847" cy="-11.705" r="0.5" fill="black" />
            <circle cx="74.932" cy="-3.190" r="0.5" fill="black" />
            <circle cx="74.932" cy="3.190" r="0.5" fill="black" />
            <circle cx="58.847" cy="11.705" r="0.5" fill="black" />
            <circle cx="54.158" cy="11.818" r="0.5" fill="black" />
            <circle cx="39.260" cy="16.262" r="0.5" fill="black" />
        </g>
    </g>
</svg>